<?xml version="1.0" encoding="utf-8"?>
<!-- Generator: Adobe Illustrator 24.2.1, SVG Export Plug-In . SVG Version: 6.00 Build 0)  -->
<svg version="1.1" xmlns="http://www.w3.org/2000/svg" xmlns:xlink="http://www.w3.org/1999/xlink" x="0px" y="0px"
	 viewBox="0 0 813.465 332.757" enable-background="new 0 0 813.465 332.757" xml:space="preserve">
<g id="Layer_3_copy_2">
	<g>
		
			<radialGradient id="SVGID_1_" cx="149.711" cy="155.6427" r="17.0414" gradientTransform="matrix(1.001 0 0 1.0153 -0.2867 -4.9422)" gradientUnits="userSpaceOnUse">
			<stop  offset="0" style="stop-color:#E1F0E1"/>
			<stop  offset="0.938" style="stop-color:#84CFEE"/>
			<stop  offset="1" style="stop-color:#4469A8"/>
		</radialGradient>
		<ellipse fill="url(#SVGID_1_)" cx="152.791" cy="155.383" rx="11.848" ry="12.017"/>
		<radialGradient id="SVGID_2_" cx="150.6041" cy="151.4229" r="15.0661" gradientUnits="userSpaceOnUse">
			<stop  offset="0" style="stop-color:#B1D8B8"/>
			<stop  offset="0.1437" style="stop-color:#79BE89"/>
			<stop  offset="1" style="stop-color:#00A455"/>
		</radialGradient>
		<path fill="url(#SVGID_2_)" d="M161.415,161.079c-0.201,0.153-0.45,0.046-0.665,0.123c-0.013,0.005-0.042-0.004-0.047-0.014
			c-0.233-0.487-0.608-0.196-0.901-0.125c-0.206,0.05-0.358-0.021-0.535-0.038c-0.123-0.011-0.287-0.014-0.368,0.055
			c-0.187,0.158-0.387,0.214-0.618,0.204c-0.328-0.013-0.656-0.021-0.982-0.048c-0.139-0.011-0.284-0.045-0.408-0.106
			c-0.067-0.033-0.149-0.158-0.134-0.217c0.056-0.209-0.054-0.344-0.186-0.444c-0.213-0.16-0.454-0.282-0.677-0.429
			c-0.045-0.03-0.063-0.102-0.061-0.175c-0.222-0.143-0.455-0.272-0.662-0.434c-0.079-0.062-0.097-0.201-0.144-0.305
			c-0.009-0.021-0.019-0.047-0.037-0.057c-0.101-0.058-0.203-0.115-0.309-0.163c-0.016-0.007-0.084,0.048-0.081,0.056
			c0.045,0.113,0.069,0.258,0.154,0.328c0.342,0.284,0.616,0.62,0.845,0.998c0.024,0.04,0.092,0.049,0.131,0.084
			c0.054,0.048,0.102,0.103,0.144,0.161c0.005,0.007-0.045,0.075-0.056,0.072c-0.055-0.018-0.104-0.051-0.157-0.076
			c-0.067-0.031-0.145-0.047-0.2-0.091c-0.08-0.065-0.139-0.154-0.214-0.226c-0.087-0.085-0.175-0.172-0.275-0.24
			c-0.092-0.062-0.2-0.1-0.301-0.148c0.001-0.024-0.006-0.066,0.004-0.071c0.211-0.097,0.105-0.217-0.007-0.272
			c-0.258-0.128-0.353-0.372-0.459-0.599c-0.129-0.276-0.331-0.438-0.613-0.521c-0.058-0.017-0.146-0.019-0.17-0.058
			c-0.231-0.393-0.464-0.785-0.668-1.192c-0.062-0.125-0.042-0.294-0.048-0.443c-0.007-0.18-0.012-0.361,0.003-0.54
			c0.042-0.512,0.13-1.033-0.39-1.387c-0.056-0.038-0.105-0.09-0.147-0.144c-0.03-0.038-0.075-0.11-0.061-0.132
			c0.128-0.191-0.021-0.312-0.099-0.455c-0.08-0.148-0.242-0.254-0.189-0.471c0.022-0.091-0.056-0.194-0.205-0.133
			c-0.035,0.014-0.134-0.04-0.149-0.081c-0.044-0.126-0.061-0.262-0.089-0.394c0.011-0.012,0.022-0.024,0.034-0.035
			c0.036-0.032,0.072-0.065,0.108-0.097c-0.016-0.012-0.033-0.024-0.049-0.036c-0.019,0.045-0.038,0.09-0.057,0.136
			c-0.014,0.009-0.027,0.019-0.041,0.028c-0.021,0.024-0.042,0.047-0.08,0.089c-0.045-0.135-0.063-0.267-0.129-0.366
			c-0.125-0.186-0.267-0.365-0.424-0.525c-0.173-0.177-0.496-0.155-0.606-0.432c-0.004-0.011-0.103-0.009-0.113,0.01
			c-0.127,0.245-0.371,0.069-0.525,0.203c-0.014-0.023-0.027-0.046-0.041-0.07c0.101-0.117,0.201-0.233,0.339-0.393
			c-0.208,0.124-0.45,0.187-0.524,0.334c-0.088,0.176-0.21,0.197-0.347,0.247c-0.166,0.061-0.328,0.153-0.498,0.173
			c-0.266,0.032-0.538,0.017-0.808,0.018c-0.023,0-0.045-0.035-0.088-0.069c0.447-0.103,0.951,0.049,1.275-0.399
			c-0.135-0.09-0.256-0.169-0.397-0.263c0.028-0.067,0.068-0.161,0.109-0.258c-0.082-0.021-0.142-0.036-0.206-0.052
			c0.007-0.07,0.01-0.131,0.021-0.19c0.011-0.062,0.036-0.121,0.045-0.183c0.02-0.149,0.312-0.319,0.454-0.26
			c0.218,0.091,0.322,0.03,0.359-0.208c-0.327-0.032-0.383-0.116-0.295-0.51c0.178,0.047,0.352,0.094,0.52,0.139
			c-0.014-0.128-0.03-0.261-0.044-0.394c-0.014-0.124,0.019-0.187,0.163-0.151c0.059,0.014,0.129-0.011,0.193-0.022
			c0.163-0.029,0.324-0.07,0.487-0.089c0.095-0.011,0.177-0.026,0.277,0.078c0.164,0.172,0.388,0.288,0.591,0.423
			c0.161,0.107,0.327,0.207,0.492,0.309c0.038,0.024,0.085,0.07,0.116,0.062c0.151-0.038,0.297-0.095,0.446-0.137
			c0.07-0.02,0.144-0.022,0.275-0.041c-0.013,0.015,0.019-0.022,0.057-0.068c0.047,0.08,0.088,0.149,0.138,0.232
			c0.044-0.059,0.07-0.094,0.098-0.132c0.028,0.047,0.053,0.089,0.078,0.131c0.007-0.021,0.014-0.043,0.021-0.064
			c0.084,0.011,0.17,0.015,0.252,0.034c0.126,0.03,0.249,0.096,0.375,0.099c0.16,0.003,0.225,0.044,0.16,0.242
			c0.215-0.03,0.409-0.056,0.604-0.083c-0.011-0.05-0.046-0.121-0.033-0.182c0.011-0.05,0.079-0.088,0.122-0.131
			c-0.1,0.018-0.155,0.089-0.227,0.119c-0.102,0.044-0.22,0.087-0.326,0.077c-0.103-0.01-0.204-0.081-0.299-0.136
			c-0.039-0.022-0.06-0.075-0.089-0.113c0.035-0.024,0.067-0.057,0.106-0.07c0.074-0.024,0.152-0.036,0.229-0.053
			c-0.14-0.035-0.308,0.014-0.396-0.049c-0.089-0.064-0.098-0.239-0.138-0.354c-0.078,0.091-0.172,0.202-0.25,0.294
			c-0.257-0.133-0.24-0.295-0.147-0.474c0.012-0.024,0.016-0.057,0.013-0.084c-0.019-0.148,0.093-0.16,0.175-0.135
			c0.16,0.049,0.311,0.131,0.466,0.197c0.063,0.027,0.131,0.042,0.192,0.071c0.065,0.03,0.126,0.07,0.168-0.027
			c0.069,0.06,0.138,0.12,0.228,0.199c-0.039-0.086-0.094-0.153-0.091-0.217c0.003-0.067,0.062-0.131,0.097-0.196
			c0.034,0.042,0.081,0.079,0.099,0.126c0.076,0.209,0.142,0.42,0.402,0.477c0.053,0.012,0.125,0.061,0.137,0.106
			c0.016,0.059-0.019,0.132-0.038,0.224c-0.067,0.009-0.165,0.022-0.257,0.034c0.17,0.184,0.275,0.198,0.648,0.066
			c-0.051-0.126-0.1-0.249-0.157-0.392c0.083,0.007,0.124,0.01,0.185,0.016c-0.108-0.231-0.211-0.442-0.305-0.658
			c-0.036-0.084-0.05-0.178-0.074-0.267c0.084-0.017,0.168-0.034,0.295-0.059c-0.217,0.621,0.402,0.648,0.603,0.956
			c0.028-0.034,0.061-0.101,0.085-0.098c0.047,0.007,0.092,0.048,0.131,0.083c0.059,0.054,0.112,0.114,0.2,0.206
			c-0.017-0.139-0.004-0.219-0.037-0.269c-0.075-0.115-0.187-0.316-0.258-0.305c-0.233,0.035-0.364-0.086-0.476-0.232
			c-0.072-0.093-0.101-0.227-0.119-0.348c-0.004-0.024,0.128-0.068,0.197-0.104c0.01-0.005,0.017-0.016,0.025-0.023
			c0.16-0.15,0.325-0.27,0.542-0.092c0.007,0.006,0.022,0.005,0.033,0.005c0.194,0.005,0.389-0.001,0.582,0.018
			c0.125,0.012,0.313,0.024,0.355,0.1c0.103,0.189,0.219,0.103,0.356,0.098c0.184-0.006,0.42-0.126,0.522,0.159
			c0.022,0.063,0.051,0.123,0.088,0.211c-0.136-0.014-0.257-0.026-0.378-0.038c0.064,0.089,0.146,0.169,0.22,0.163
			c0.247-0.022,0.411,0.077,0.52,0.286c-0.084,0.016-0.172,0.033-0.288,0.054c0.134,0.039,0.24,0.069,0.346,0.1
			c-0.216,0.109-0.4,0.24-0.642,0.117c-0.121-0.062-0.296-0.083-0.385,0.107c-0.015,0.032-0.09,0.062-0.125,0.052
			c-0.038-0.011-0.079-0.067-0.088-0.11c-0.008-0.036,0.026-0.084,0.047-0.123c0.029-0.055,0.101-0.118,0.089-0.159
			c-0.032-0.108-0.08-0.223-0.156-0.304c-0.074-0.079-0.19-0.119-0.288-0.176c-0.012,0.02-0.025,0.04-0.037,0.059
			c0.007,0.015,0.014,0.03,0.02,0.045c0.03,0.067,0.059,0.134,0.088,0.201c-0.03,0.007-0.085,0.025-0.088,0.02
			c-0.031-0.069-0.054-0.142-0.081-0.213c-0.01-0.028-0.019-0.072-0.039-0.079c-0.13-0.047-0.263-0.085-0.346-0.111
			c-0.063,0.058-0.107,0.088-0.136,0.129c-0.024,0.033-0.053,0.098-0.04,0.114c0.091,0.106,0.182,0.218,0.293,0.299
			c0.126,0.093,0.15,0.204,0.083,0.321c-0.033,0.057-0.131,0.077-0.203,0.116c0.192,0.268,0.063,0.584-0.011,0.874
			c-0.056,0.218-0.113,0.433-0.047,0.637c0.047,0.144,0.021,0.429,0.334,0.349c0.017-0.004,0.049,0.04,0.07,0.064
			c0.064,0.071,0.126,0.143,0.189,0.214c0.005-0.024,0.009-0.047,0.014-0.071c0.143-0.005,0.287-0.015,0.43-0.014
			c0.224,0.001,0.453,0.039,0.67,0.002c0.122-0.021,0.179-0.021,0.255,0.074c0.08,0.099,0.186,0.178,0.297,0.28
			c-0.035,0.069,0.065,0.144,0.381,0.171c-0.024-0.116-0.021-0.232-0.073-0.316c-0.068-0.11-0.187-0.186-0.266-0.29
			c-0.039-0.051-0.066-0.139-0.05-0.197c0.058-0.207,0.05-0.411-0.128-0.532c-0.218-0.149-0.445-0.265-0.555-0.535
			c-0.048-0.117-0.188-0.193-0.279-0.295c-0.025-0.028-0.022-0.08-0.032-0.12c0.181-0.034,0.285-0.268,0.514-0.187
			c0.088,0.031,0.189,0.022,0.241,0.027c0.198,0.109,0.371,0.205,0.545,0.301c0.029-0.027,0.057-0.054,0.086-0.081
			c-0.064-0.149-0.129-0.298-0.193-0.448c0.01-0.009,0.021-0.018,0.031-0.026c0.244,0.094,0.488,0.191,0.734,0.28
			c0.117,0.043,0.239,0.071,0.358,0.106c0.375-0.087,0.723,0.054,0.899,0.351c0.045,0.075,0.125,0.13,0.182,0.186
			c0.072-0.079,0.13-0.155,0.139-0.149c0.141,0.083,0.278,0.174,0.411,0.27c0.017,0.012,0.009,0.06,0.013,0.091
			c-0.035-0.002-0.07-0.004-0.106-0.005c-0.01-0.004-0.02-0.009-0.03-0.013c0,0.015,0,0.029,0.001,0.044
			c0.003,0.049,0.006,0.098,0.005,0.082c-0.084,0.063-0.135,0.09-0.169,0.131c-0.048,0.058-0.083,0.127-0.13,0.201
			c-0.15-0.287-0.286-0.547-0.421-0.808c-0.054,0.066-0.077,0.127-0.059,0.171c0.091,0.23,0.01,0.399-0.153,0.565
			c-0.247,0.251-0.199,0.566-0.167,0.872c0.055-0.146,0.09-0.296,0.144-0.439c0.015-0.04,0.083-0.077,0.13-0.082
			c0.023-0.002,0.053,0.073,0.082,0.111c0.076,0.099,0.153,0.197,0.23,0.295c0.018,0.007,0.036,0.013,0.054,0.02
			c-0.009-0.015-0.019-0.031-0.028-0.046c0.087-0.037,0.173-0.074,0.288-0.123c-0.015-0.061-0.041-0.167-0.07-0.284
			c0.207,0.101,0.24,0.656,0.023,1.099c-0.039-0.124-0.079-0.249-0.117-0.37c-0.244,0.477-0.243,0.95-0.014,1.181
			c-0.059,0.223-0.149,0.431-0.163,0.644c-0.014,0.218,0.045,0.441,0.073,0.677c-0.04-0.027-0.068-0.046-0.096-0.064
			c0.011,0.094,0.041,0.182,0.102,0.226c0.182,0.131,0.177,0.321,0.136,0.49c-0.069,0.286-0.183,0.561-0.276,0.842
			c-0.083,0.253-0.047,0.467,0.139,0.682c0.158,0.182,0.362,0.363,0.336,0.65c-0.01,0.113-0.053,0.202-0.166,0.102
			c-0.135-0.119-0.268-0.252-0.358-0.405c-0.087-0.149-0.263-0.203-0.384-0.074c-0.025,0.026-0.072,0.062-0.095,0.054
			c-0.254-0.089-0.393,0.142-0.589,0.211c-0.033,0.012-0.063,0.098-0.057,0.145c0.026,0.198-0.133,0.258-0.251,0.27
			c-0.316,0.031-0.584,0.112-0.738,0.418c-0.019,0.038-0.06,0.065-0.092,0.095c-0.196,0.185-0.229,0.379-0.112,0.615
			c0.019,0.039,0.027,0.086,0.028,0.13c0.007,0.225-0.013,0.453,0.02,0.673c0.039,0.259,0.389,0.551,0.645,0.514
			c0.17-0.024,0.319-0.172,0.488-0.239c0.186-0.074,0.237-0.222,0.252-0.389c0.028-0.307,0.28-0.579,0.608-0.623
			c-0.043,0.371-0.086,0.739-0.129,1.111c0.346-0.009,0.512-0.438,0.896-0.348c0,0.208-0.017,0.411,0.008,0.608
			c0.01,0.081,0.109,0.206,0.175,0.211c0.099,0.007,0.218-0.057,0.305-0.122c0.131-0.097,0.23-0.299,0.362-0.318
			c0.279-0.041,0.263-0.259,0.347-0.421c0.164-0.319,0.325-0.639,0.487-0.959c0.017,0.007,0.035,0.014,0.052,0.021
			c-0.013,0.067-0.027,0.133-0.04,0.2c0.015,0.005,0.031,0.009,0.046,0.014c0.041-0.126,0.082-0.252,0.122-0.377
			c0.159-0.023,0.308-0.054,0.399-0.216c0.086-0.154,0.189-0.3,0.293-0.444c0.037-0.051,0.094-0.105,0.152-0.121
			c0.278-0.076,0.493-0.208,0.559-0.515c0.015-0.068,0.074-0.126,0.118-0.198c0.076-0.065,0.074,0.055,0.038,0.238
			c-0.13,0.58-0.266,1.067-0.453,1.615c-0.4,1.171-0.864,2.203-1.62,3.183c-0.173,0.224-0.455,0.596-0.638,0.811
			c-0.044,0.018-0.128-0.088-0.143-0.082c-0.088-0.103-0.169-0.186-0.236-0.28c-0.036-0.051-0.076-0.128-0.062-0.179
			c0.023-0.084,0.087-0.156,0.122-0.213c-0.007-0.079-0.037-0.152-0.013-0.2c0.089-0.184,0.196-0.359,0.294-0.539
			c0.088-0.16,0.19-0.314,0.258-0.482c0.102-0.253,0.06-0.492-0.186-0.733c-0.056,0.111-0.101,0.222-0.165,0.32
			C161.55,160.958,161.477,161.015,161.415,161.079z M159.339,154.018c0.039-0.025,0.079-0.05,0.118-0.075
			c-0.06-0.048-0.115-0.107-0.183-0.139c-0.023-0.011-0.077,0.05-0.118,0.075c-0.043,0.026-0.087,0.051-0.133,0.072
			c-0.068,0.03-0.139,0.055-0.164,0.064c0.117,0.149,0.209,0.265,0.279,0.353c0.088,0.03,0.162,0.055,0.262,0.088
			c-0.029-0.142-0.057-0.277-0.085-0.412C159.323,154.035,159.331,154.026,159.339,154.018z M157.745,154.32
			c0.282,0.074,0.342-0.135,0.435-0.284c0.257,0.276,0.352-0.081,0.532-0.101c-0.165-0.316-0.52-0.388-0.702-0.14
			C157.902,153.943,157.84,154.126,157.745,154.32z M158.935,155.029c-0.009-0.055-0.007-0.081-0.018-0.099
			c-0.139-0.231-0.239-0.468-0.149-0.746c0.002-0.007-0.119-0.066-0.122-0.061c-0.054,0.083-0.152,0.183-0.136,0.258
			c0.049,0.234,0.137,0.46,0.221,0.686c0.015,0.041,0.081,0.063,0.124,0.094C158.885,155.11,158.916,155.06,158.935,155.029z
			 M153.161,150.813c0-0.045,0-0.082,0-0.147c-0.131,0.06-0.243,0.112-0.356,0.163c0.004,0.013,0.008,0.027,0.011,0.04
			c0.056,0,0.112,0,0.16,0c-0.027,0.09-0.051,0.17-0.091,0.305c0.209-0.128,0.352-0.216,0.494-0.303
			c-0.013-0.019-0.025-0.039-0.038-0.058C153.287,150.813,153.232,150.813,153.161,150.813z M159.748,154.234
			c-0.143,0.215-0.261,0.392-0.383,0.575C159.554,154.86,159.789,154.528,159.748,154.234z M155.229,150.172
			c0.015-0.005,0.03-0.01,0.046-0.015c0-0.047-0.019-0.107,0.003-0.139c0.105-0.147-0.049-0.197-0.101-0.282
			c-0.009-0.014-0.063-0.009-0.09,0.002c-0.011,0.004-0.018,0.05-0.01,0.071C155.125,149.931,155.178,150.051,155.229,150.172z
			 M159.641,154.126c0.024,0.018,0.048,0.035,0.072,0.053c0.071-0.131,0.318-0.148,0.278-0.352
			c-0.024-0.016-0.047-0.032-0.071-0.048C159.827,153.895,159.734,154.01,159.641,154.126z M152.869,155.084
			c0.016,0.006,0.033,0.012,0.049,0.018c0.011-0.044,0.045-0.098,0.03-0.13c-0.035-0.076-0.092-0.141-0.14-0.21
			c-0.016,0.012-0.033,0.023-0.049,0.035C152.796,154.892,152.833,154.988,152.869,155.084z M144.993,147.911
			c-0.002-0.005-0.004-0.01-0.006-0.015c0.016-0.002,0.031-0.005,0.047-0.007c0.166-0.235,0.332-0.469,0.486-0.687
			c0.168,0.06,0.319,0.119,0.474,0.166c0.109,0.033,0.158,0.079,0.144,0.206c-0.013,0.116,0.018,0.236,0.019,0.354
			c0,0.054-0.008,0.134-0.042,0.157c-0.152,0.101-0.059,0.187-0.037,0.231c0.207,0,0.375,0,0.543,0
			c-0.022,0.11-0.045,0.221-0.072,0.355c0.101,0,0.238,0,0.401,0c-0.324,0.244-0.66,0.075-0.975,0.106
			c-0.167,0.016-0.359-0.01-0.493,0.066c-0.216,0.121-0.395,0.31-0.588,0.472c-0.069,0.058-0.132,0.124-0.212,0.2
			c0.05,0.015,0.063,0.025,0.071,0.021c0.268-0.111,0.581,0.029,0.836-0.153c0.017-0.012,0.046-0.019,0.065-0.013
			c0.197,0.059,0.274-0.115,0.357-0.217c0.104-0.127,0.405-0.192,0.503-0.061c0.018,0.024,0.018,0.086,0.03,0.087
			c0.224,0.02,0.155,0.161,0.123,0.287c0.198,0.017,0.398,0.02,0.593,0.056c0.097,0.018,0.184,0.095,0.319,0.169
			c0.07-0.099,0.165-0.231,0.242-0.34c0.124-0.023,0.244-0.046,0.364-0.069c0.013-0.028,0.026-0.057,0.039-0.085
			c0.014,0.013,0.028,0.027,0.043,0.04c-0.018,0.023-0.036,0.046-0.053,0.069c0.028,0.183,0.056,0.366,0.082,0.538
			c0.143-0.041,0.296-0.077,0.441-0.132c0.033-0.013,0.064-0.095,0.056-0.137c-0.017-0.081-0.062-0.156-0.096-0.234
			c-0.023,0.021-0.045,0.041-0.068,0.062c-0.007-0.006-0.014-0.013-0.02-0.019c0.021-0.023,0.043-0.047,0.064-0.07
			c0.113-0.391,0.151-0.777-0.085-1.159c-0.076,0.047-0.149,0.093-0.223,0.138c-0.013-0.015-0.026-0.03-0.039-0.044
			c0.059-0.057,0.118-0.115,0.177-0.172c-0.042-0.043-0.113-0.087-0.145-0.151c-0.074-0.149-0.124-0.297,0.101-0.384
			c0.041-0.016,0.081-0.166,0.053-0.209c-0.096-0.145-0.028-0.225,0.075-0.309c0.089-0.148,0.186-0.292,0.259-0.447
			c0.011-0.024-0.09-0.1-0.14-0.153c-0.02,0.009-0.04,0.019-0.059,0.028c0.027-0.098,0.055-0.196,0.086-0.305
			c-0.022-0.008-0.061-0.024-0.125-0.049c0.228-0.191,0.612,0.029,0.734-0.338c0,0-0.03-0.019-0.101-0.064
			c0.247-0.079,0.358-0.347,0.633-0.327c0.122,0.009,0.246,0.071,0.362,0.058c0.148-0.017,0.289-0.087,0.433-0.137
			c0.019-0.007,0.048-0.037,0.045-0.044c-0.132-0.289,0.223-0.261,0.278-0.428c0.019-0.057,0.05-0.11,0.075-0.165
			c-0.016-0.01-0.032-0.02-0.048-0.03c0.074-0.039,0.147-0.078,0.272-0.143c-0.12-0.031-0.189-0.049-0.253-0.065
			c0.105-0.077,0.313,0.103,0.371-0.159c0.039,0.027,0.083,0.057,0.148,0.103c0.053-0.227-0.163-0.235-0.267-0.348
			c0.045-0.032,0.087-0.062,0.106-0.075c0.046,0.054,0.08,0.097,0.118,0.136c0.051,0.053,0.099,0.111,0.158,0.154
			c0.069,0.05,0.157,0.127,0.222,0.115c0.057-0.01,0.134-0.131,0.129-0.197c-0.004-0.059-0.109-0.11-0.163-0.159
			c0.123,0.011,0.285,0.071,0.415,0.029c0.406-0.131,0.825-0.056,1.233-0.125c0.064-0.011,0.129-0.014,0.202,0.012
			c-0.024,0.011-0.047,0.021-0.062,0.028c0.362-0.017,0.733-0.035,1.104-0.052c0,0.039,0,0.077,0,0.116
			c-0.218-0.03-0.436-0.06-0.654-0.09c-0.007,0.024-0.015,0.048-0.022,0.071c0.186,0.097,0.4,0.162,0.551,0.297
			c0.316,0.283,0.707,0.282,1.08,0.346c0.356,0.061,0.721,0.07,1.075,0.139c0.272,0.053,0.53,0.173,0.798,0.248
			c0.092,0.026,0.197,0.004,0.296,0.004c0.006-0.025,0.013-0.051,0.019-0.076c-0.152-0.074-0.304-0.148-0.487-0.236
			c0.095-0.022,0.163-0.037,0.23-0.052c-0.154-0.073-0.304-0.157-0.464-0.214c-0.131-0.047-0.273-0.072-0.412-0.087
			c-0.061-0.007-0.129,0.056-0.19,0.051c-0.328-0.029-0.655-0.07-0.977-0.159c0.236,0.011,0.471,0.022,0.707,0.033
			c0.01-0.022,0.02-0.045,0.03-0.067c-0.036-0.018-0.073-0.036-0.109-0.054c0.008-0.018,0.017-0.035,0.025-0.053
			c0.081,0.027,0.16,0.061,0.243,0.079c0.132,0.028,0.275,0.024,0.399,0.071c0.259,0.099,0.51,0.222,0.762,0.337
			c0.004,0.002-0.01,0.041-0.016,0.063c0.077,0.036,0.154,0.072,0.2,0.094c-0.023,0.001-0.085,0.005-0.137,0.007
			c0.442,0.194,0.89,0.39,1.341,0.588c-0.116,0.198-0.206,0.226-0.423,0.158c-0.005,0.007-0.011,0.014-0.018,0.02
			c-0.007,0.032-0.026,0.089-0.02,0.091c0.151,0.069,0.305,0.134,0.459,0.195c0.014,0.005,0.05-0.015,0.057-0.031
			c0.052-0.126,0.109-0.057,0.183-0.018c0.113,0.06,0.237,0.098,0.356,0.146c-0.013-0.032-0.027-0.064-0.04-0.097
			c-0.035-0.034-0.069-0.069-0.104-0.103c-0.027-0.02-0.053-0.039-0.079-0.059c0.006-0.008,0.012-0.016,0.019-0.023
			c0.025,0.021,0.051,0.042,0.076,0.063c0.035,0.035,0.069,0.069,0.104,0.104c0.071,0.049,0.143,0.097,0.214,0.146
			c0.063,0.047,0.127,0.094,0.19,0.141c-0.007-0.03-0.013-0.06-0.021-0.098c0.088,0.018,0.164,0.034,0.24,0.049
			c-0.026-0.03-0.048-0.067-0.08-0.088c-0.647-0.417-1.269-0.881-1.948-1.237c-1.132-0.595-2.342-0.98-3.616-1.162
			c-0.878-0.126-1.756-0.192-2.637-0.092c-0.676,0.076-1.354,0.167-2.017,0.314c-1.182,0.262-2.288,0.735-3.312,1.38
			c-0.528,0.333-1.028,0.711-1.521,1.095c-0.25,0.195-0.464,0.439-0.682,0.672c-0.199,0.213-0.384,0.439-0.567,0.666
			c-0.056,0.069-0.087,0.159-0.13,0.239c0.07,0,0.14,0,0.235,0c-0.028,0.059-0.04,0.102-0.065,0.136
			c-0.097,0.135-0.089,0.219,0.101,0.229c0.231,0.011,0.457,0.016,0.657-0.134c0.059-0.044,0.139-0.062,0.209-0.091
			c0.009,0.016,0.017,0.032,0.026,0.049c-0.196,0.128-0.393,0.257-0.589,0.385c0.014,0.025,0.028,0.051,0.042,0.076
			c0.09-0.041,0.187-0.072,0.269-0.125c0.13-0.083,0.251-0.179,0.374-0.271c0.064-0.048,0.125-0.099,0.231-0.183
			c-0.101,0.008-0.139,0.011-0.178,0.014C145.019,147.895,145.006,147.903,144.993,147.911z M142.757,148.953
			c-0.031,0.229-0.061,0.457-0.094,0.705c0.131-0.103,0.251-0.18,0.349-0.279c0.13-0.132,0.242-0.281,0.362-0.423l0.002,0.002
			c-0.125,0.074-0.251,0.147-0.376,0.221c-0.019-0.014-0.038-0.027-0.057-0.041c0.029-0.128,0.064-0.254,0.083-0.383
			c0.005-0.031-0.044-0.069-0.068-0.105C142.89,148.752,142.824,148.853,142.757,148.953z M160.433,146.18
			c0.144,0.178,0.272,0.374,0.438,0.529c0.147,0.138,0.336,0.232,0.506,0.346C161.063,146.763,160.748,146.472,160.433,146.18z
			 M143.31,148.16c-0.005,0.021-0.009,0.042-0.014,0.064c0.009,0.011,0.019,0.023,0.028,0.034c0.127-0.147,0.253-0.295,0.38-0.442
			C143.573,147.931,143.441,148.045,143.31,148.16z M160.226,146.021c0.05,0.034,0.101,0.068,0.151,0.103
			C160.327,146.09,160.276,146.055,160.226,146.021z M161.401,147.079c0.027,0.031,0.055,0.062,0.082,0.092
			C161.456,147.141,161.428,147.11,161.401,147.079z M143.86,148.683c-0.071,0.033-0.154,0.107-0.211,0.091
			c-0.183-0.053-0.211,0.082-0.272,0.185l-0.002-0.002c0.031-0.005,0.062-0.01,0.108-0.018c-0.037,0.078-0.069,0.147-0.101,0.216
			c0.051,0.04,0.094,0.074,0.154,0.121c0.109-0.202,0.216-0.398,0.323-0.595L143.86,148.683z M146.294,160.146
			c-0.062-0.055-0.123-0.11-0.185-0.165c-0.022,0.045-0.07,0.122-0.06,0.131c0.055,0.047,0.124,0.078,0.189,0.114
			C146.256,160.199,146.275,160.172,146.294,160.146z M143.296,148.224c-0.006,0.022-0.012,0.044-0.018,0.065
			c0.015-0.01,0.03-0.021,0.046-0.031C143.315,148.247,143.305,148.235,143.296,148.224z M143.86,148.683
			c0.004-0.009,0.007-0.017,0.011-0.026c-0.004,0.008-0.008,0.016-0.013,0.025C143.858,148.681,143.86,148.683,143.86,148.683z
			 M144.253,148.413c0,0.007,0,0.014,0,0.022c0.004-0.002,0.009-0.003,0.011-0.005c0.002-0.002,0-0.007,0-0.01
			C144.261,148.417,144.257,148.415,144.253,148.413z M159.606,145.778c-0.005,0.006-0.011,0.012-0.015,0.019
			c0.013,0.032,0.027,0.064,0.041,0.097c0.063,0.01,0.126,0.02,0.189,0.03C159.749,145.875,159.677,145.826,159.606,145.778z
			 M159.606,145.778c-0.035-0.035-0.069-0.069-0.104-0.104c-0.005,0.006-0.01,0.013-0.015,0.02c0.035,0.034,0.069,0.069,0.104,0.103
			C159.595,145.79,159.6,145.784,159.606,145.778z M159.502,145.673c-0.025-0.021-0.051-0.042-0.076-0.063
			c-0.006,0.008-0.012,0.016-0.019,0.023c0.027,0.02,0.053,0.039,0.079,0.059C159.492,145.686,159.497,145.68,159.502,145.673z
			 M160.039,146.097c-0.008-0.012-0.017-0.025-0.025-0.037C160.022,146.072,160.031,146.084,160.039,146.097z M154.698,146.124
			c-0.008,0.005-0.021,0.002-0.032,0.003c0.017,0.018,0.035,0.037,0.096,0.1c-0.114-0.051-0.175-0.078-0.236-0.105
			c-0.24,0.175-0.234,0.348,0.011,0.532c0.004,0.003,0.146,0.086,0.025,0.167c-0.028,0.019-0.036,0.107-0.018,0.147
			c0.041,0.091,0.1,0.175,0.159,0.258c0.02,0.028,0.061,0.064,0.087,0.061c0.157-0.022,0.183,0.046,0.162,0.186
			c-0.013,0.082-0.057,0.202,0.109,0.216c0.068,0.006,0.131,0.074,0.2,0.081c0.113,0.012,0.255,0.14,0.335-0.054
			c0.065-0.159,0.185-0.183,0.333-0.144c0.347,0.092,0.694,0.186,1.019,0.273c0.099,0.075,0.199,0.15,0.299,0.226
			c0.02-0.021,0.04-0.042,0.06-0.062c-0.025-0.049-0.05-0.097-0.074-0.146c0.016-0.011,0.032-0.023,0.048-0.034
			c0.076,0.101,0.14,0.215,0.232,0.299c0.325,0.298,0.751,0.355,1.156,0.461c0.112,0.019,0.225,0.061,0.334,0.051
			c0.077-0.007,0.148-0.084,0.221-0.13c0.035-0.023,0.092-0.044,0.097-0.073c0.005-0.033-0.028-0.085-0.059-0.109
			c-0.28-0.208-0.567-0.407-0.844-0.619c-0.074-0.057-0.129-0.142-0.185-0.22c-0.089-0.126-0.166-0.261-0.259-0.384
			c-0.077-0.101-0.17-0.19-0.255-0.285c-0.148-0.167-0.294-0.335-0.441-0.502c-0.009,0.024-0.018,0.049-0.027,0.073
			c-0.042,0.018-0.083,0.043-0.127,0.053c-0.026,0.006-0.058-0.01-0.104-0.019c0.057-0.032,0.094-0.053,0.174-0.097
			c-0.085-0.028-0.13-0.049-0.178-0.058c-0.203-0.04-0.406-0.086-0.611-0.112c-0.182-0.024-0.366-0.026-0.549-0.037
			c-0.028-0.002-0.077,0.008-0.081-0.001c-0.081-0.207-0.168-0.034-0.253-0.008c-0.036,0.011-0.079,0.017-0.114,0.008
			c-0.207-0.054-0.413-0.114-0.62-0.169c-0.047-0.012-0.097-0.013-0.183-0.025c0.066,0.081,0.101,0.124,0.136,0.168
			C154.724,146.102,154.712,146.115,154.698,146.124z M154.287,148.301c-0.012,0.04-0.043,0.109-0.034,0.114
			c0.045,0.028,0.099,0.042,0.152,0.056c0.053,0.014,0.125,0.006,0.159,0.038c0.179,0.172,0.337,0.193,0.54,0.056
			c0.028-0.019,0.061-0.032,0.083-0.056c0.037-0.041,0.102-0.101,0.092-0.131c-0.018-0.053-0.091-0.132-0.128-0.126
			c-0.087,0.015-0.186,0.056-0.244,0.119c-0.109,0.117-0.179,0.088-0.266-0.011c0.141-0.075,0.27-0.136,0.388-0.213
			c0.026-0.017,0.033-0.106,0.013-0.141c-0.096-0.165-0.213-0.317-0.305-0.483c-0.083-0.151-0.128-0.324-0.22-0.468
			c-0.037-0.058-0.155-0.098-0.231-0.092c-0.336,0.03-0.298,0.349-0.419,0.549c0.088,0.048,0.163,0.09,0.238,0.131
			c-0.004,0.009-0.009,0.018-0.013,0.028c-0.079-0.029-0.158-0.059-0.241-0.09c-0.016,0.245-0.004,0.278,0.305,0.458
			c0.072,0.042,0.19,0.006,0.343,0.006c0.008,0.043,0.025,0.138,0.042,0.234c-0.086,0.008-0.171,0.015-0.257,0.023L154.287,148.301z
			 M153.224,148.946c0,0.008,0.065,0.007,0.097,0.019c0.035,0.013,0.064,0.041,0.099,0.053c0.046,0.015,0.103,0.042,0.141,0.027
			c0.093-0.035,0.193-0.077,0.26-0.146c0.035-0.035,0.035-0.163,0.001-0.195c-0.061-0.057-0.16-0.072-0.264-0.113
			c0.017,0.067,0.032,0.127,0.067,0.264c-0.189-0.127-0.329-0.221-0.469-0.315c0-0.03,0-0.059-0.001-0.089
			c-0.102,0.096-0.205,0.193-0.342,0.322C152.987,148.843,153.207,148.677,153.224,148.946z M156.354,150.327
			c0.035,0.082,0.067,0.165,0.094,0.232c0.08,0.012,0.15,0.022,0.23,0.034c0.01-0.083,0.02-0.166,0.03-0.252
			c0.033,0.003,0.056,0.011,0.077,0.007c0.054-0.011,0.107-0.028,0.161-0.042c-0.042-0.023-0.081-0.055-0.126-0.069
			c-0.171-0.054-0.344-0.103-0.589-0.176C156.285,150.176,156.321,150.25,156.354,150.327z M154.494,148.96
			c-0.05-0.024-0.146,0.046-0.241,0.079c0.067,0.076,0.103,0.117,0.155,0.176c-0.063,0-0.102,0-0.14,0
			c-0.005,0.013-0.011,0.025-0.016,0.038c0.134,0.073,0.268,0.145,0.414,0.224C154.766,149.292,154.693,149.056,154.494,148.96z
			 M154.272,148.779c0.013,0.004,0.061-0.049,0.056-0.059c-0.036-0.081-0.067-0.175-0.131-0.229
			c-0.027-0.023-0.126,0.04-0.194,0.058c-0.044,0.012-0.09,0.013-0.15,0.02C153.916,148.784,154.12,148.734,154.272,148.779z
			 M154.284,148.303c-0.086-0.076-0.171-0.154-0.262-0.224c-0.008-0.006-0.059,0.046-0.071,0.055
			c-0.115-0.031-0.222-0.059-0.329-0.088c-0.011,0.03-0.022,0.061-0.033,0.091c0.119,0.053,0.33,0.169,0.342,0.151
			c0.125-0.186,0.219,0.034,0.321,0.01c0.01-0.002,0.023,0.002,0.034,0.003C154.287,148.301,154.284,148.303,154.284,148.303z
			 M149.362,152.04c-0.385,0.048-0.401,0.061-0.367,0.314C149.143,152.228,149.253,152.134,149.362,152.04z M151.66,154.03
			c-0.01-0.111-0.017-0.223-0.032-0.334c-0.004-0.033-0.021-0.074-0.046-0.093c-0.022-0.016-0.081-0.018-0.092-0.003
			c-0.019,0.026-0.026,0.075-0.014,0.105c0.047,0.117,0.104,0.231,0.158,0.346C151.643,154.044,151.652,154.037,151.66,154.03z
			 M153.407,148.218c-0.023,0.05-0.064,0.1-0.065,0.15c-0.001,0.044,0.043,0.088,0.068,0.133c0.035-0.042,0.07-0.084,0.125-0.151
			C153.48,148.293,153.444,148.255,153.407,148.218z M154.652,148.694c-0.063-0.054-0.126-0.108-0.22-0.189
			c-0.016,0.076-0.048,0.144-0.031,0.159c0.054,0.049,0.125,0.078,0.19,0.115C154.611,148.751,154.632,148.722,154.652,148.694z
			 M158.575,149.915c-0.012-0.005-0.025-0.009-0.037-0.014c0.002,0.013,0.004,0.027,0.007,0.04
			C158.554,149.933,158.565,149.924,158.575,149.915z M162.142,158.127c-0.014-0.02-0.028-0.041-0.043-0.061
			c-0.248,0.062-0.493,0.151-0.745,0.18c-0.341,0.039-0.522,0.282-0.728,0.498c-0.033,0.034-0.015,0.117-0.021,0.177
			c0.153-0.19,0.288-0.352,0.542-0.387c0.197-0.027,0.384-0.172,0.623-0.019C161.887,158.393,162.014,158.26,162.142,158.127z
			 M157.921,146.285c0.059,0.109,0.101,0.227,0.151,0.34c0.02-0.006,0.041-0.012,0.061-0.018c0.011-0.028,0.022-0.056,0.028-0.071
			c0.089,0.016,0.175,0.031,0.263,0.047c0.006-0.214-0.19-0.48-0.434-0.567c-0.072-0.026-0.165,0.006-0.267,0.012
			C157.817,146.15,157.881,146.211,157.921,146.285z M162.253,158.465c0.219-0.266,0.437-0.532,0.673-0.819
			c-0.389-0.088-0.463,0.238-0.626,0.341c0.018,0.109,0.056,0.189,0.034,0.246c-0.025,0.066-0.104,0.112-0.159,0.166
			C162.201,158.421,162.227,158.443,162.253,158.465z M153.959,145.083c-0.006,0.019-0.011,0.038-0.017,0.056
			c0.03,0.022,0.058,0.055,0.092,0.064c0.114,0.031,0.231,0.055,0.347,0.077c0.068,0.013,0.161,0.051,0.2,0.022
			c0.082-0.063,0.135-0.162,0.235-0.293c-0.196,0.04-0.313,0.064-0.371,0.075c-0.052-0.072-0.079-0.109-0.106-0.146
			c-0.015,0.008-0.029,0.016-0.044,0.024c0,0.072,0,0.144,0,0.195C154.175,145.132,154.067,145.107,153.959,145.083z
			 M152.145,144.611c0.388-0.042,0.731-0.163,1-0.487c-0.137-0.031-0.261-0.06-0.43-0.098c0.07,0.075,0.103,0.111,0.174,0.187
			C152.628,144.352,152.387,144.482,152.145,144.611z M159.193,145.919c0.243,0.144,0.485,0.288,0.728,0.433
			c0.018-0.028,0.035-0.056,0.053-0.085c-0.237-0.154-0.475-0.308-0.712-0.462C159.24,145.844,159.216,145.882,159.193,145.919z
			 M149.45,146.574c0.055-0.093,0.11-0.186,0.165-0.279c-0.015-0.02-0.03-0.04-0.045-0.06c-0.087,0.046-0.208,0.071-0.25,0.143
			C149.279,146.447,149.275,146.597,149.45,146.574L149.45,146.574z M151.541,145.37c-0.098-0.201-0.259-0.23-0.492-0.082
			C151.203,145.313,151.357,145.339,151.541,145.37z M161.726,158.955c0.073-0.063,0.146-0.126,0.219-0.189
			c-0.015-0.02-0.03-0.04-0.045-0.059c-0.077,0.054-0.153,0.109-0.23,0.163C161.688,158.899,161.707,158.927,161.726,158.955z
			 M158.614,145.489c-0.014-0.001-0.027-0.002-0.041-0.003c0.007,0.008,0.015,0.015,0.022,0.023
			C158.603,145.503,158.609,145.497,158.614,145.489z M159.339,154.018c-0.014-0.001-0.028-0.001-0.041-0.002
			c0.005,0.009,0.011,0.018,0.016,0.028C159.323,154.035,159.331,154.026,159.339,154.018z"/>
		
			<ellipse fill="none" stroke="#0078A1" stroke-width="0.5" stroke-miterlimit="10" cx="152.791" cy="155.383" rx="11.848" ry="12.017"/>
	</g>
	<text transform="matrix(1 0 0 1 196.8463 97.9301)" fill="#BCBDBD" font-family="'HelveticaNeue-Medium'" font-size="11px">East</text>
	<text transform="matrix(1 0 0 1 160.5703 253.8755)" fill="#BCBDBD" font-family="'HelveticaNeue-Medium'" font-size="11px">South</text>
	<g>
		<g enable-background="new    ">
			<g>
				<g>
					<g>
						<g>
							
								<line fill="none" stroke="#A6A6A7" stroke-width="0.8" stroke-linecap="round" stroke-miterlimit="10" x1="250.036" y1="219.704" x2="250.036" y2="219.704"/>
							
								<path fill="none" stroke="#A6A6A7" stroke-width="0.8" stroke-linecap="round" stroke-miterlimit="10" stroke-dasharray="0,2.5087" d="
								M248.613,221.768c-18.851,26.432-53.731,40.918-93.995,35.122C93.276,248.059,42.31,195.443,41.014,139.598
								c-0.421-18.12,4.439-34.388,13.292-47.797"/>
							
								<line fill="none" stroke="#A6A6A7" stroke-width="0.8" stroke-linecap="round" stroke-miterlimit="10" x1="55.004" y1="90.762" x2="55.004" y2="90.762"/>
						</g>
					</g>
				</g>
			</g>
		</g>
	</g>
	<g>
		<g enable-background="new    ">
			<g>
				<g>
					<g>
						<g>
							
								<line fill="none" stroke="#A6A6A7" stroke-width="0.8" stroke-linecap="round" stroke-miterlimit="10" x1="269.205" y1="156.18" x2="269.205" y2="156.18"/>
							
								<path fill="none" stroke="#A6A6A7" stroke-width="0.8" stroke-linecap="round" stroke-miterlimit="10" stroke-dasharray="0,2.5012" d="
								M269.098,153.682c-2.087-24.921-34.428-47.752-83.444-55.515c-61.791-9.787-127.043,8.02-145.453,39.697
								c-3.055,5.256-4.631,10.569-4.853,15.82"/>
							
								<line fill="none" stroke="#A6A6A7" stroke-width="0.8" stroke-linecap="round" stroke-miterlimit="10" x1="35.321" y1="154.931" x2="35.321" y2="154.931"/>
						</g>
					</g>
				</g>
			</g>
		</g>
	</g>
	<g>
		<g enable-background="new    ">
			<g>
				<g>
					<g>
						<g>
							
								<line fill="none" stroke="#A6A6A7" stroke-width="0.8" stroke-linecap="round" stroke-miterlimit="10" x1="173.527" y1="40.686" x2="173.527" y2="40.686"/>
							
								<path fill="none" stroke="#A6A6A7" stroke-width="0.8" stroke-linecap="round" stroke-miterlimit="10" stroke-dasharray="0,2.5061" d="
								M175.955,41.278c10.443,3.753,17.635,22.629,18.518,54.059c1.518,54.037-16.18,125.037-39.454,158.275
								c-8.218,11.736-16.049,17.219-22.809,17.023"/>
							
								<line fill="none" stroke="#A6A6A7" stroke-width="0.8" stroke-linecap="round" stroke-miterlimit="10" x1="130.966" y1="270.533" x2="130.966" y2="270.533"/>
						</g>
					</g>
				</g>
			</g>
		</g>
	</g>
</g>
<g id="Layer_6">
	<path fill="none" stroke="#EC7E16" stroke-width="2" stroke-linecap="round" stroke-miterlimit="10" d="M109.784,211.415
		c2.962,0.608,5.995,1.159,9.094,1.65c32.772,5.191,66.515,2.618,93.728-5.669"/>
	<polygon points="197.851,129.87 197.339,128.04 225.454,120.285 225.965,121.915 	"/>
	<path fill="none" stroke="#EC7E16" stroke-width="2" stroke-linecap="round" stroke-miterlimit="10" d="M151.867,54.862
		c22.457,19.682,36.758,47.443,44.915,73.346"/>
	<path stroke="#FFFFFF" stroke-width="2" stroke-miterlimit="10" d="M196.39,128.285l14.774-8.764
		c0.213-0.127,0.994,1.288,0.814,1.554l-15.424,8.966c0,0-0.248-0.693-0.248-1.131C196.307,128.474,196.39,128.285,196.39,128.285z"
		/>
	<path d="M196.39,128.085l16.79-9.795c0.213-0.127,1.367,1.578,1.188,1.844l-17.813,10.008c0,0-0.248-0.793-0.248-1.231
		C196.307,128.474,196.39,128.085,196.39,128.085z"/>
	
		<line fill="none" stroke="#000000" stroke-width="2" stroke-miterlimit="10" x1="208.138" y1="160.493" x2="197.319" y2="129.242"/>
	<g>
		<g>
			<path d="M204.579,157.948l0.449-0.038l2.544,1.81c0.204,0.146,0.492,0.061,0.584-0.172l0.801-2.906l0.375-0.07l-0.466,5.687
				c-0.018,0.226-0.304,0.311-0.444,0.133L204.579,157.948z"/>
		</g>
	</g>
	<text transform="matrix(1 0 0 1 154.1566 209.5969)" fill="#EC7E16" font-family="'Symbol'" font-size="16px">f</text>
	<text transform="matrix(1 0 0 1 182.1654 89.5968)" fill="#EC7E16" font-family="'Symbol'" font-size="16px">q</text>
	<g>
		<g>
			<path d="M223.577,124.23l-0.043-0.406l1.594-2.336c0.129-0.188,0.047-0.446-0.166-0.526l-2.645-0.673l-0.07-0.338l5.158,0.321
				c0.205,0.013,0.287,0.27,0.128,0.399L223.577,124.23z"/>
		</g>
	</g>
	<g>
		<g>
			<path d="M212.257,123.798l-0.182-0.555l1.623-3.661c0.123-0.301-0.069-0.638-0.392-0.685l-3.904-0.141l-0.2-0.452l7.312-1.112
				c0.29-0.044,0.484,0.291,0.3,0.52L212.257,123.798z"/>
		</g>
	</g>
	<g>
		<defs>
			<path id="SVGID_3_" d="M162.175,154.234c-0.641,6.606-4.421,17.431-9.383,13.166c-4.163-3.578-10.183-7.882-11.848-12.017
				c-2.479-6.156,4.785-8.467,11.319-8.807C157.275,146.316,162.55,150.365,162.175,154.234z M152.791,34.562
				c-66.85,0-121.043,54.193-121.043,121.043s54.193,121.043,121.043,121.043s121.043-54.193,121.043-121.043
				S219.641,34.562,152.791,34.562z"/>
		</defs>
		<clipPath id="SVGID_4_">
			<use xlink:href="#SVGID_3_"  overflow="visible"/>
		</clipPath>
		
			<line clip-path="url(#SVGID_4_)" fill="none" stroke="#EC7E16" stroke-width="1.5" stroke-miterlimit="10" stroke-dasharray="2,2.5" x1="152.531" y1="155.383" x2="212.606" y2="206.597"/>
		<g clip-path="url(#SVGID_4_)">
			<polygon fill="#9487B8" points="113.672,208.116 111.797,207.633 151.973,154.836 152.791,155.005 			"/>
			<g>
				<polygon fill="#9487B8" points="111.428,204.827 113.49,206.72 117.203,206.909 109.711,211.767 				"/>
			</g>
		</g>
		<g clip-path="url(#SVGID_4_)">
			<polygon fill="#9487B8" points="258.212,174.176 152.109,155.274 152.608,154.697 259.251,172.784 			"/>
			<g>
				<polygon fill="#9487B8" points="254.827,175.281 257.324,173.225 257.652,171.377 263.535,174.306 				"/>
			</g>
		</g>
		<g clip-path="url(#SVGID_4_)">
			<polygon fill="#9487B8" points="151.933,155.005 151.086,60.266 152.594,60.227 152.683,154.931 			"/>
			<g>
				<polygon fill="#9487B8" points="154.938,63.118 151.892,61.167 148.987,61.766 151.867,54.862 				"/>
			</g>
		</g>
		<polygon clip-path="url(#SVGID_4_)" fill="#7C7C7D" points="198.493,128.955 152.531,155.383 152.188,154.836 197.319,127.721 		
			"/>
	</g>
</g>
<g id="Layer_7">
	<g>
		<g>
			
				<line fill="none" stroke="#000000" stroke-width="1.25" stroke-linecap="round" stroke-miterlimit="10" x1="55.004" y1="90.762" x2="55.004" y2="90.762"/>
			
				<path fill="none" stroke="#000000" stroke-width="1.25" stroke-linecap="round" stroke-miterlimit="10" stroke-dasharray="0,2.495" d="
				M56.443,88.725c18.972-25.969,53.582-40.138,93.473-34.395c61.342,8.831,112.299,61.454,113.595,117.299
				c0.413,17.778-4.257,33.773-12.793,47.033"/>
			
				<line fill="none" stroke="#000000" stroke-width="1.25" stroke-linecap="round" stroke-miterlimit="10" x1="250.036" y1="219.704" x2="250.036" y2="219.704"/>
		</g>
	</g>
	<g>
		<g>
			
				<line fill="none" stroke="#000000" stroke-width="1.25" stroke-linecap="round" stroke-miterlimit="10" x1="35.321" y1="154.931" x2="35.321" y2="154.931"/>
			
				<path fill="none" stroke="#000000" stroke-width="1.25" stroke-linecap="round" stroke-miterlimit="10" stroke-dasharray="0,2.5033" d="
				M35.419,157.431c1.999,24.967,34.368,47.859,83.459,55.634c61.791,9.787,127.037-8.026,145.447-39.703
				c3.077-5.295,4.654-10.647,4.858-15.935"/>
			
				<line fill="none" stroke="#000000" stroke-width="1.25" stroke-linecap="round" stroke-miterlimit="10" x1="269.205" y1="156.18" x2="269.205" y2="156.18"/>
		</g>
	</g>
	<g>
		<g>
			
				<line fill="none" stroke="#000000" stroke-width="1.25" stroke-linecap="round" stroke-miterlimit="10" x1="130.966" y1="270.533" x2="130.966" y2="270.533"/>
			
				<path fill="none" stroke="#000000" stroke-width="1.25" stroke-linecap="round" stroke-miterlimit="10" stroke-dasharray="0,2.5054" d="
				M128.54,269.934c-10.424-3.78-17.602-22.645-18.483-54.038c-1.518-54.037,16.183-125.049,39.457-158.287
				c8.202-11.713,16.018-17.197,22.768-17.021"/>
			
				<line fill="none" stroke="#000000" stroke-width="1.25" stroke-linecap="round" stroke-miterlimit="10" x1="173.527" y1="40.686" x2="173.527" y2="40.686"/>
		</g>
	</g>
</g>
<g id="Layer_3">
	<circle fill="none" stroke="#000000" stroke-width="2" stroke-miterlimit="10" cx="152.264" cy="155.612" r="117.181"/>
</g>
<g id="Layer_2">
	<text transform="matrix(1 0 0 1 276.0624 28.2426)" font-family="'HelveticaNeue-Medium'" font-size="18px">COSMO (HEALPix) Conventions</text>
	
		<text transform="matrix(1 0 0 1 137.2389 50.4301)" fill="#FFFFFF" stroke="#FFFFFF" stroke-miterlimit="10" font-family="'HelveticaNeue-Medium'" font-size="12px">North</text>
	<text transform="matrix(1 0 0 1 137.2389 50.4301)" font-family="'HelveticaNeue-Medium'" font-size="12px">North</text>
	<text transform="matrix(1 0 0 1 369.934 264.1013)" font-family="'HelveticaNeue-Medium'" font-size="12px">South</text>
	<text transform="matrix(1 0 0 1 647.7732 264.1013)" font-family="'HelveticaNeue-Medium'" font-size="12px">South</text>
	<text transform="matrix(1 0 0 1 506.2444 144.57)" font-family="'HelveticaNeue-Medium'" font-size="12px">East</text>
	<text transform="matrix(1 0 0 1 564.1521 144.57)" font-family="'HelveticaNeue-Medium'" font-size="12px">East</text>
	<text transform="matrix(1 0 0 1 201.4683 117.8124)" font-family="'HelveticaNeue-Bold'" font-size="13px">Z</text>
	<text transform="matrix(1 0 0 1 155.6516 80.3781)" fill="#9487B8" font-family="'MinionPro-BoldIt'" font-size="12px">z</text>
	<text transform="matrix(1 0 0 1 122.5733 207.8244)" fill="#9487B8" font-family="'MinionPro-BoldIt'" font-size="12px">x</text>
	<text transform="matrix(1 0 0 1 249.2783 167.3042)" fill="#9487B8" font-family="'MinionPro-BoldIt'" font-size="12px">y</text>
	<text transform="matrix(1 0 0 1 228.952 125.013)" font-family="'HelveticaNeue-Medium'" font-size="12px">Y</text>
	<text transform="matrix(1 0 0 1 212.0335 162.551)" font-family="'HelveticaNeue-Medium'" font-size="12px">X</text>
	<text transform="matrix(1 0 0 1 514.5833 165.9564)" font-family="'HelveticaNeue-Medium'" font-size="12px">Y</text>
	<text transform="matrix(1 0 0 1 572.4919 165.9564)" font-family="'HelveticaNeue-Medium'" font-size="12px">Y</text>
	<text transform="matrix(1 0 0 1 413.1193 264.1017)" font-family="'HelveticaNeue-Medium'" font-size="12px">X</text>
	<text transform="matrix(1 0 0 1 690.4207 264.1017)" font-family="'HelveticaNeue-Medium'" font-size="12px">X</text>
	
		<text transform="matrix(1 0 0 1 470.9149 108.3449)" fill="#00A3E6" font-family="'HelveticaNeue-Medium'" font-size="14px" letter-spacing="1">–U</text>
	
		<text transform="matrix(1 0 0 1 603.471 108.3449)" fill="#00A3E6" font-family="'HelveticaNeue-Medium'" font-size="14px" letter-spacing="1">–U</text>
	
		<text transform="matrix(1 0 0 1 381.0605 73.6535)" fill="#E3217E" font-family="'HelveticaNeue-Medium'" font-size="14px" letter-spacing="1">+Q</text>
	
		<text transform="matrix(1 0 0 1 691.6678 73.6535)" fill="#E3217E" font-family="'HelveticaNeue-Medium'" font-size="14px" letter-spacing="1">+Q</text>
	
		<text transform="matrix(1 0 0 1 325.5634 108.3447)" fill="#00A3E6" font-family="'HelveticaNeue-Medium'" font-size="14px" letter-spacing="1">+U</text>
	
		<text transform="matrix(1 0 0 1 745.8341 108.3447)" fill="#00A3E6" font-family="'HelveticaNeue-Medium'" font-size="14px" letter-spacing="1">+U</text>
	
		<text transform="matrix(1 0 0 1 318.0776 144.57)" fill="#E3217E" font-family="'HelveticaNeue-Medium'" font-size="14px" letter-spacing="1">–Q</text>
	
		<text transform="matrix(1 0 0 1 757.8958 144.57)" fill="#E3217E" font-family="'HelveticaNeue-Medium'" font-size="14px" letter-spacing="1">–Q</text>
	<text transform="matrix(1 0 0 1 90.1443 300.5761)" font-family="'HelveticaNeue-Medium'" font-size="14px">Coordinate Sphere</text>
	<text transform="matrix(1 0 0 1 314.5072 300.5763)" font-family="'HelveticaNeue-Medium'" font-size="14px">Tangent plane, looking inward</text>
	<text transform="matrix(1 0 0 1 584.2579 300.5763)" font-family="'HelveticaNeue-Medium'" font-size="14px">Tangent plane, looking outward</text>
</g>
<g id="Layer_8">
	<line fill="none" stroke="#E3217E" stroke-width="3" stroke-miterlimit="10" x1="408.603" y1="57.745" x2="408.603" y2="246.345"/>
	<line fill="none" stroke="#00A3E6" stroke-width="3" stroke-miterlimit="10" x1="341.923" y1="85.365" x2="475.283" y2="218.725"/>
	
		<line fill="none" stroke="#E3217E" stroke-width="3" stroke-miterlimit="10" stroke-dasharray="2,2.5" x1="314.303" y1="152.045" x2="502.903" y2="152.045"/>
	
		<line fill="none" stroke="#00A3E6" stroke-width="3" stroke-miterlimit="10" stroke-dasharray="2,2.5" x1="341.923" y1="218.725" x2="475.283" y2="85.365"/>
	<g>
		<g>
			
				<line fill="none" stroke="#000000" stroke-width="0.75" stroke-miterlimit="10" x1="506.971" y1="152.045" x2="529.185" y2="152.045"/>
			<g>
				<polygon points="533.421,152.045 527.452,154.484 528.868,152.045 527.452,149.606 				"/>
			</g>
		</g>
	</g>
	<g>
		<g>
			
				<line fill="none" stroke="#000000" stroke-width="0.75" stroke-miterlimit="10" x1="408.603" y1="250.413" x2="408.603" y2="272.627"/>
			<g>
				<polygon points="408.603,276.863 406.164,270.894 408.603,272.31 411.042,270.894 				"/>
			</g>
		</g>
	</g>
	
		<line fill="none" stroke="#000000" stroke-width="0.75" stroke-miterlimit="10" x1="408.603" y1="152.045" x2="459.951" y2="241.17"/>
	<g>
		<g>
			<path fill="none" stroke="#000000" stroke-width="0.75" stroke-miterlimit="10" d="M441.095,216.736
				c-8.58,4.318-18.138,6.979-28.252,7.563"/>
			<g>
				<polygon points="444.819,214.723 438.405,215.389 440.805,216.871 440.706,219.69 				"/>
			</g>
			<g>
				<polygon points="408.603,224.422 414.488,221.785 413.154,224.27 414.651,226.66 				"/>
			</g>
		</g>
	</g>
	<line fill="none" stroke="#E3217E" stroke-width="3" stroke-miterlimit="10" x1="686.354" y1="57.745" x2="686.354" y2="246.345"/>
	<line fill="none" stroke="#00A3E6" stroke-width="3" stroke-miterlimit="10" x1="753.034" y1="85.365" x2="619.673" y2="218.725"/>
	
		<line fill="none" stroke="#E3217E" stroke-width="3" stroke-miterlimit="10" stroke-dasharray="2,2.5" x1="780.654" y1="152.045" x2="592.054" y2="152.045"/>
	
		<line fill="none" stroke="#00A3E6" stroke-width="3" stroke-miterlimit="10" stroke-dasharray="2,2.5" x1="753.034" y1="218.725" x2="619.673" y2="85.365"/>
	<g>
		<g>
			
				<line fill="none" stroke="#000000" stroke-width="0.75" stroke-miterlimit="10" x1="587.985" y1="152.045" x2="565.772" y2="152.045"/>
			<g>
				<polygon points="561.535,152.045 567.505,149.606 566.088,152.045 567.505,154.484 				"/>
			</g>
		</g>
	</g>
	<g>
		<g>
			
				<line fill="none" stroke="#000000" stroke-width="0.75" stroke-miterlimit="10" x1="686.354" y1="250.413" x2="686.354" y2="272.627"/>
			<g>
				<polygon points="686.354,276.863 683.914,270.894 686.354,272.31 688.792,270.894 				"/>
			</g>
		</g>
	</g>
	
		<line fill="none" stroke="#000000" stroke-width="0.75" stroke-miterlimit="10" x1="686.353" y1="152.045" x2="635.006" y2="241.17"/>
	<g>
		<g>
			<path fill="none" stroke="#000000" stroke-width="0.75" stroke-miterlimit="10" d="M653.862,216.736
				c8.58,4.318,18.138,6.979,28.252,7.563"/>
			<g>
				<polygon points="650.138,214.723 654.25,219.69 654.152,216.871 656.551,215.389 				"/>
			</g>
			<g>
				<polygon points="686.354,224.422 680.306,226.661 681.803,224.27 680.469,221.785 				"/>
			</g>
		</g>
	</g>
	<text transform="matrix(1 0 0 1 418.841 214.7228)" font-family="'Symbol'" font-size="16.1px" letter-spacing="1">y</text>
	<text transform="matrix(1 0 0 1 665.044 214.7228)" font-family="'Symbol'" font-size="16.1px" letter-spacing="1">y</text>
</g>
</svg>
