<?xml version="1.0" encoding="utf-8"?>
<!-- Generator: Adobe Illustrator 24.2.1, SVG Export Plug-In . SVG Version: 6.00 Build 0)  -->
<svg version="1.1" xmlns="http://www.w3.org/2000/svg" xmlns:xlink="http://www.w3.org/1999/xlink" x="0px" y="0px"
	 viewBox="0 0 813.465 334.913" enable-background="new 0 0 813.465 334.913" xml:space="preserve">
<g id="Layer_3_copy_2">
	<g>
		
			<radialGradient id="SVGID_1_" cx="150.1106" cy="156.1793" r="17.0414" gradientTransform="matrix(1.001 0 0 1.0153 -0.2867 0.2198)" gradientUnits="userSpaceOnUse">
			<stop  offset="0" style="stop-color:#E1F0E1"/>
			<stop  offset="0.938" style="stop-color:#84CFEE"/>
			<stop  offset="1" style="stop-color:#4469A8"/>
		</radialGradient>
		<ellipse fill="url(#SVGID_1_)" cx="153.191" cy="161.09" rx="11.848" ry="12.017"/>
		<radialGradient id="SVGID_2_" cx="151.0041" cy="157.1296" r="15.0661" gradientUnits="userSpaceOnUse">
			<stop  offset="0" style="stop-color:#B1D8B8"/>
			<stop  offset="0.1437" style="stop-color:#79BE89"/>
			<stop  offset="1" style="stop-color:#00A455"/>
		</radialGradient>
		<path fill="url(#SVGID_2_)" d="M161.815,166.785c-0.201,0.153-0.45,0.046-0.665,0.123c-0.013,0.005-0.042-0.004-0.047-0.014
			c-0.233-0.487-0.608-0.196-0.901-0.125c-0.206,0.05-0.358-0.021-0.535-0.038c-0.123-0.011-0.287-0.014-0.368,0.055
			c-0.187,0.158-0.387,0.214-0.619,0.204c-0.328-0.013-0.656-0.021-0.982-0.048c-0.139-0.011-0.284-0.045-0.408-0.106
			c-0.067-0.033-0.149-0.158-0.134-0.217c0.056-0.209-0.054-0.344-0.186-0.444c-0.213-0.16-0.454-0.282-0.677-0.429
			c-0.045-0.03-0.063-0.102-0.061-0.175c-0.222-0.143-0.455-0.272-0.662-0.434c-0.079-0.062-0.097-0.201-0.144-0.305
			c-0.009-0.021-0.019-0.047-0.037-0.057c-0.101-0.058-0.203-0.115-0.309-0.163c-0.016-0.007-0.084,0.048-0.081,0.056
			c0.045,0.113,0.069,0.258,0.154,0.328c0.342,0.284,0.616,0.62,0.845,0.998c0.024,0.04,0.092,0.049,0.131,0.084
			c0.054,0.048,0.102,0.103,0.144,0.161c0.005,0.007-0.045,0.075-0.056,0.072c-0.055-0.018-0.104-0.051-0.157-0.076
			c-0.067-0.031-0.145-0.047-0.2-0.091c-0.08-0.065-0.139-0.154-0.214-0.226c-0.087-0.085-0.175-0.172-0.275-0.24
			c-0.091-0.062-0.2-0.1-0.301-0.148c0.001-0.024-0.006-0.066,0.004-0.071c0.211-0.097,0.105-0.217-0.007-0.272
			c-0.258-0.128-0.353-0.372-0.459-0.599c-0.129-0.276-0.331-0.438-0.613-0.521c-0.058-0.017-0.146-0.019-0.17-0.058
			c-0.231-0.393-0.464-0.785-0.668-1.192c-0.062-0.125-0.042-0.294-0.048-0.443c-0.007-0.18-0.012-0.361,0.003-0.54
			c0.042-0.512,0.13-1.033-0.39-1.387c-0.056-0.038-0.105-0.09-0.147-0.144c-0.03-0.038-0.075-0.11-0.061-0.132
			c0.128-0.191-0.021-0.312-0.099-0.455c-0.08-0.148-0.242-0.254-0.189-0.471c0.022-0.091-0.056-0.194-0.205-0.133
			c-0.035,0.014-0.135-0.04-0.149-0.081c-0.044-0.126-0.061-0.262-0.089-0.394c0.011-0.012,0.022-0.024,0.034-0.035
			c0.036-0.032,0.072-0.065,0.108-0.097c-0.016-0.012-0.033-0.024-0.049-0.036c-0.019,0.045-0.038,0.09-0.057,0.136
			c-0.014,0.009-0.027,0.019-0.041,0.028c-0.021,0.024-0.042,0.047-0.08,0.089c-0.045-0.135-0.063-0.267-0.129-0.366
			c-0.125-0.186-0.267-0.365-0.424-0.525c-0.173-0.177-0.496-0.155-0.606-0.432c-0.004-0.011-0.103-0.009-0.113,0.01
			c-0.127,0.245-0.371,0.069-0.525,0.203c-0.014-0.023-0.027-0.046-0.041-0.07c0.101-0.117,0.201-0.233,0.339-0.393
			c-0.208,0.124-0.45,0.187-0.524,0.334c-0.088,0.176-0.21,0.197-0.347,0.247c-0.166,0.061-0.328,0.153-0.498,0.173
			c-0.266,0.032-0.538,0.017-0.808,0.018c-0.023,0-0.045-0.035-0.088-0.069c0.447-0.103,0.951,0.05,1.275-0.399
			c-0.135-0.09-0.256-0.169-0.397-0.263c0.028-0.067,0.068-0.161,0.109-0.258c-0.082-0.021-0.142-0.036-0.206-0.052
			c0.007-0.07,0.01-0.131,0.021-0.19c0.011-0.062,0.036-0.121,0.045-0.183c0.02-0.149,0.312-0.319,0.454-0.26
			c0.218,0.091,0.322,0.03,0.359-0.208c-0.327-0.032-0.383-0.116-0.295-0.51c0.178,0.047,0.352,0.094,0.52,0.139
			c-0.014-0.128-0.03-0.261-0.044-0.394c-0.014-0.124,0.019-0.187,0.163-0.151c0.059,0.014,0.129-0.011,0.193-0.022
			c0.163-0.029,0.324-0.07,0.487-0.089c0.095-0.011,0.177-0.026,0.277,0.078c0.164,0.172,0.388,0.288,0.591,0.423
			c0.161,0.107,0.327,0.207,0.492,0.309c0.038,0.024,0.085,0.07,0.116,0.062c0.151-0.038,0.297-0.095,0.446-0.137
			c0.07-0.02,0.144-0.022,0.275-0.041c-0.013,0.015,0.019-0.022,0.057-0.068c0.047,0.08,0.088,0.149,0.138,0.232
			c0.044-0.059,0.07-0.094,0.098-0.132c0.028,0.047,0.053,0.089,0.078,0.131c0.007-0.021,0.014-0.043,0.021-0.064
			c0.084,0.011,0.17,0.015,0.252,0.034c0.126,0.03,0.249,0.096,0.375,0.099c0.16,0.003,0.225,0.044,0.16,0.242
			c0.215-0.03,0.409-0.056,0.604-0.083c-0.011-0.05-0.046-0.121-0.033-0.182c0.011-0.05,0.079-0.088,0.122-0.131
			c-0.1,0.018-0.155,0.089-0.227,0.119c-0.102,0.044-0.22,0.087-0.326,0.077c-0.103-0.01-0.204-0.081-0.299-0.136
			c-0.039-0.022-0.06-0.075-0.089-0.113c0.035-0.024,0.067-0.057,0.106-0.07c0.074-0.024,0.152-0.036,0.229-0.053
			c-0.139-0.035-0.308,0.014-0.396-0.049c-0.089-0.064-0.098-0.239-0.138-0.354c-0.078,0.091-0.172,0.202-0.25,0.294
			c-0.257-0.133-0.24-0.295-0.147-0.474c0.012-0.024,0.016-0.057,0.013-0.084c-0.019-0.148,0.093-0.16,0.175-0.135
			c0.16,0.049,0.311,0.131,0.466,0.197c0.063,0.027,0.131,0.042,0.192,0.071c0.065,0.03,0.126,0.07,0.168-0.027
			c0.069,0.06,0.138,0.12,0.228,0.199c-0.039-0.086-0.094-0.153-0.091-0.217c0.003-0.067,0.062-0.131,0.097-0.196
			c0.034,0.042,0.081,0.079,0.099,0.126c0.076,0.209,0.142,0.42,0.402,0.477c0.053,0.012,0.125,0.061,0.137,0.106
			c0.016,0.059-0.019,0.132-0.038,0.224c-0.067,0.009-0.165,0.022-0.257,0.034c0.17,0.184,0.275,0.198,0.648,0.066
			c-0.051-0.126-0.1-0.249-0.157-0.392c0.083,0.007,0.124,0.01,0.185,0.016c-0.108-0.231-0.211-0.442-0.305-0.658
			c-0.036-0.084-0.05-0.178-0.074-0.267c0.084-0.017,0.168-0.034,0.295-0.059c-0.217,0.621,0.402,0.648,0.603,0.956
			c0.028-0.034,0.061-0.101,0.085-0.098c0.047,0.007,0.092,0.048,0.131,0.083c0.059,0.054,0.112,0.114,0.2,0.206
			c-0.017-0.139-0.004-0.219-0.037-0.269c-0.075-0.115-0.187-0.316-0.257-0.305c-0.233,0.035-0.364-0.086-0.476-0.232
			c-0.072-0.093-0.101-0.227-0.119-0.348c-0.004-0.024,0.128-0.068,0.197-0.104c0.01-0.005,0.017-0.015,0.025-0.023
			c0.16-0.15,0.325-0.27,0.542-0.092c0.007,0.006,0.022,0.005,0.033,0.005c0.194,0.005,0.389-0.001,0.582,0.018
			c0.125,0.012,0.313,0.024,0.355,0.1c0.103,0.189,0.219,0.103,0.356,0.098c0.184-0.006,0.42-0.126,0.522,0.159
			c0.022,0.063,0.051,0.123,0.088,0.211c-0.136-0.014-0.257-0.026-0.378-0.038c0.064,0.089,0.146,0.169,0.22,0.163
			c0.247-0.022,0.411,0.077,0.52,0.286c-0.084,0.016-0.172,0.033-0.288,0.054c0.134,0.039,0.24,0.069,0.346,0.1
			c-0.216,0.109-0.4,0.24-0.642,0.117c-0.121-0.062-0.296-0.083-0.385,0.107c-0.015,0.032-0.09,0.062-0.125,0.052
			c-0.038-0.011-0.079-0.067-0.088-0.11c-0.008-0.036,0.026-0.084,0.047-0.123c0.029-0.055,0.101-0.118,0.089-0.159
			c-0.032-0.108-0.08-0.223-0.156-0.304c-0.074-0.079-0.19-0.119-0.288-0.176c-0.012,0.02-0.025,0.04-0.037,0.059
			c0.007,0.015,0.014,0.03,0.02,0.045c0.03,0.067,0.059,0.134,0.088,0.201c-0.03,0.007-0.085,0.025-0.088,0.02
			c-0.031-0.069-0.054-0.142-0.08-0.213c-0.011-0.028-0.019-0.072-0.039-0.079c-0.13-0.047-0.263-0.085-0.346-0.111
			c-0.063,0.058-0.107,0.088-0.136,0.129c-0.024,0.033-0.053,0.098-0.04,0.114c0.091,0.106,0.182,0.218,0.293,0.299
			c0.126,0.093,0.15,0.204,0.083,0.321c-0.033,0.057-0.131,0.077-0.203,0.116c0.192,0.268,0.063,0.584-0.011,0.875
			c-0.056,0.218-0.113,0.433-0.047,0.637c0.047,0.144,0.021,0.429,0.334,0.349c0.017-0.004,0.049,0.04,0.07,0.064
			c0.064,0.071,0.126,0.143,0.189,0.214c0.005-0.024,0.009-0.047,0.014-0.071c0.143-0.005,0.287-0.015,0.43-0.014
			c0.224,0.001,0.453,0.039,0.67,0.002c0.122-0.021,0.179-0.021,0.255,0.074c0.08,0.099,0.186,0.178,0.297,0.28
			c-0.035,0.069,0.065,0.144,0.381,0.171c-0.024-0.116-0.021-0.232-0.073-0.316c-0.068-0.11-0.187-0.186-0.266-0.29
			c-0.039-0.051-0.066-0.139-0.05-0.197c0.058-0.207,0.05-0.411-0.128-0.532c-0.218-0.149-0.445-0.265-0.555-0.535
			c-0.048-0.117-0.188-0.193-0.279-0.295c-0.025-0.028-0.022-0.08-0.032-0.12c0.181-0.034,0.285-0.268,0.514-0.187
			c0.088,0.031,0.189,0.022,0.241,0.027c0.198,0.109,0.371,0.205,0.545,0.301c0.029-0.027,0.057-0.054,0.086-0.081
			c-0.064-0.149-0.129-0.298-0.193-0.448c0.01-0.009,0.021-0.018,0.031-0.026c0.244,0.094,0.488,0.191,0.734,0.28
			c0.117,0.043,0.239,0.071,0.358,0.106c0.375-0.087,0.723,0.054,0.899,0.351c0.045,0.075,0.125,0.13,0.182,0.186
			c0.072-0.079,0.13-0.155,0.139-0.149c0.141,0.083,0.278,0.174,0.411,0.27c0.017,0.012,0.009,0.06,0.013,0.091
			c-0.035-0.002-0.07-0.004-0.106-0.005c-0.01-0.004-0.02-0.009-0.03-0.013c0,0.015,0,0.029,0.001,0.044
			c0.003,0.049,0.006,0.098,0.005,0.082c-0.084,0.063-0.135,0.09-0.169,0.131c-0.048,0.058-0.083,0.127-0.13,0.201
			c-0.15-0.287-0.286-0.547-0.421-0.808c-0.054,0.066-0.077,0.127-0.059,0.171c0.091,0.23,0.01,0.399-0.153,0.565
			c-0.247,0.251-0.199,0.566-0.167,0.872c0.055-0.146,0.09-0.296,0.144-0.439c0.015-0.04,0.083-0.077,0.13-0.082
			c0.023-0.002,0.053,0.073,0.082,0.111c0.076,0.099,0.153,0.197,0.23,0.295c0.018,0.007,0.036,0.013,0.054,0.02
			c-0.009-0.015-0.019-0.031-0.028-0.046c0.087-0.037,0.173-0.074,0.288-0.123c-0.015-0.061-0.041-0.167-0.07-0.284
			c0.207,0.101,0.24,0.656,0.023,1.099c-0.039-0.124-0.079-0.249-0.117-0.37c-0.244,0.477-0.243,0.95-0.014,1.181
			c-0.059,0.223-0.149,0.431-0.163,0.644c-0.014,0.218,0.045,0.441,0.073,0.677c-0.04-0.027-0.068-0.046-0.096-0.064
			c0.011,0.094,0.041,0.182,0.102,0.226c0.182,0.131,0.177,0.321,0.136,0.49c-0.069,0.286-0.183,0.561-0.276,0.842
			c-0.083,0.253-0.047,0.467,0.139,0.682c0.158,0.182,0.362,0.363,0.336,0.65c-0.01,0.113-0.053,0.202-0.166,0.102
			c-0.135-0.119-0.268-0.252-0.358-0.405c-0.087-0.149-0.263-0.203-0.384-0.074c-0.025,0.026-0.072,0.062-0.095,0.054
			c-0.254-0.089-0.393,0.142-0.589,0.211c-0.033,0.012-0.063,0.098-0.057,0.145c0.026,0.198-0.133,0.258-0.251,0.27
			c-0.316,0.031-0.584,0.112-0.738,0.418c-0.019,0.038-0.06,0.065-0.092,0.095c-0.196,0.185-0.229,0.379-0.112,0.615
			c0.019,0.039,0.027,0.086,0.028,0.13c0.007,0.225-0.013,0.453,0.02,0.673c0.039,0.259,0.389,0.551,0.645,0.514
			c0.17-0.024,0.319-0.172,0.488-0.239c0.186-0.074,0.237-0.222,0.252-0.389c0.028-0.307,0.28-0.579,0.608-0.623
			c-0.043,0.371-0.086,0.739-0.129,1.111c0.346-0.009,0.512-0.438,0.896-0.348c0,0.208-0.017,0.411,0.008,0.608
			c0.01,0.081,0.109,0.206,0.175,0.211c0.099,0.007,0.218-0.057,0.305-0.122c0.13-0.097,0.23-0.299,0.362-0.318
			c0.279-0.041,0.263-0.259,0.347-0.421c0.164-0.319,0.325-0.639,0.487-0.959c0.017,0.007,0.035,0.014,0.052,0.021
			c-0.013,0.067-0.027,0.133-0.04,0.2c0.015,0.005,0.031,0.009,0.046,0.014c0.041-0.126,0.082-0.252,0.122-0.377
			c0.159-0.023,0.308-0.054,0.399-0.216c0.086-0.154,0.189-0.3,0.293-0.444c0.037-0.051,0.094-0.105,0.152-0.121
			c0.278-0.076,0.493-0.208,0.559-0.515c0.015-0.068,0.074-0.126,0.118-0.198c0.076-0.065,0.074,0.055,0.038,0.238
			c-0.13,0.58-0.266,1.067-0.453,1.615c-0.4,1.171-0.864,2.203-1.62,3.183c-0.173,0.224-0.455,0.596-0.638,0.811
			c-0.044,0.018-0.128-0.088-0.143-0.082c-0.088-0.103-0.169-0.186-0.236-0.28c-0.036-0.051-0.076-0.128-0.062-0.179
			c0.023-0.084,0.087-0.156,0.122-0.213c-0.007-0.079-0.037-0.152-0.013-0.2c0.089-0.184,0.196-0.359,0.294-0.539
			c0.088-0.16,0.19-0.314,0.258-0.482c0.102-0.253,0.06-0.492-0.186-0.733c-0.056,0.111-0.101,0.222-0.165,0.32
			C161.95,166.665,161.877,166.721,161.815,166.785z M159.739,159.725c0.039-0.025,0.079-0.05,0.118-0.075
			c-0.06-0.048-0.115-0.107-0.183-0.139c-0.023-0.011-0.077,0.05-0.118,0.075c-0.043,0.026-0.087,0.051-0.133,0.072
			c-0.068,0.03-0.139,0.055-0.164,0.064c0.117,0.149,0.209,0.265,0.279,0.352c0.088,0.03,0.162,0.055,0.262,0.088
			c-0.029-0.142-0.057-0.277-0.085-0.412C159.723,159.742,159.731,159.733,159.739,159.725z M158.145,160.026
			c0.282,0.074,0.342-0.135,0.435-0.284c0.257,0.276,0.352-0.081,0.532-0.101c-0.165-0.316-0.52-0.388-0.702-0.14
			C158.301,159.649,158.24,159.833,158.145,160.026z M159.335,160.736c-0.009-0.055-0.007-0.081-0.018-0.099
			c-0.139-0.231-0.239-0.468-0.149-0.746c0.002-0.007-0.119-0.066-0.122-0.061c-0.054,0.083-0.152,0.183-0.136,0.258
			c0.049,0.234,0.137,0.46,0.221,0.686c0.015,0.041,0.081,0.063,0.124,0.094C159.285,160.817,159.316,160.766,159.335,160.736z
			 M153.561,156.519c0-0.045,0-0.082,0-0.147c-0.131,0.06-0.243,0.112-0.356,0.163c0.004,0.013,0.008,0.027,0.011,0.04
			c0.056,0,0.112,0,0.16,0c-0.027,0.09-0.051,0.17-0.091,0.305c0.209-0.128,0.352-0.216,0.494-0.303
			c-0.013-0.019-0.025-0.039-0.038-0.058C153.687,156.519,153.632,156.519,153.561,156.519z M160.148,159.941
			c-0.143,0.215-0.261,0.392-0.383,0.575C159.954,160.567,160.189,160.235,160.148,159.941z M155.629,155.878
			c0.015-0.005,0.03-0.01,0.046-0.015c0-0.047-0.019-0.107,0.003-0.139c0.105-0.147-0.049-0.197-0.101-0.282
			c-0.009-0.014-0.062-0.009-0.09,0.002c-0.011,0.004-0.018,0.05-0.01,0.071C155.525,155.638,155.578,155.758,155.629,155.878z
			 M160.041,159.832c0.024,0.018,0.048,0.035,0.072,0.053c0.071-0.131,0.318-0.148,0.278-0.352
			c-0.024-0.016-0.047-0.032-0.071-0.048C160.227,159.602,160.134,159.717,160.041,159.832z M153.269,160.791
			c0.016,0.006,0.033,0.012,0.049,0.018c0.011-0.044,0.045-0.098,0.03-0.13c-0.035-0.076-0.092-0.141-0.14-0.21
			c-0.016,0.012-0.033,0.023-0.049,0.035C153.196,160.599,153.233,160.695,153.269,160.791z M145.393,153.617
			c-0.002-0.005-0.004-0.01-0.006-0.015c0.016-0.002,0.031-0.005,0.047-0.007c0.166-0.235,0.332-0.469,0.486-0.687
			c0.168,0.06,0.319,0.119,0.474,0.166c0.109,0.033,0.158,0.079,0.144,0.206c-0.013,0.116,0.018,0.236,0.019,0.354
			c0,0.054-0.008,0.134-0.042,0.157c-0.152,0.101-0.059,0.187-0.037,0.231c0.207,0,0.375,0,0.543,0
			c-0.022,0.11-0.045,0.221-0.072,0.355c0.101,0,0.238,0,0.401,0c-0.324,0.244-0.66,0.075-0.975,0.106
			c-0.167,0.016-0.359-0.01-0.493,0.066c-0.216,0.121-0.395,0.31-0.588,0.472c-0.069,0.058-0.132,0.124-0.212,0.2
			c0.05,0.015,0.063,0.025,0.071,0.021c0.268-0.111,0.581,0.029,0.836-0.153c0.017-0.012,0.046-0.019,0.065-0.013
			c0.197,0.059,0.274-0.115,0.357-0.217c0.104-0.127,0.405-0.192,0.503-0.061c0.018,0.024,0.018,0.086,0.03,0.087
			c0.224,0.019,0.155,0.161,0.123,0.287c0.198,0.017,0.398,0.02,0.593,0.056c0.097,0.018,0.184,0.095,0.319,0.169
			c0.07-0.099,0.165-0.231,0.242-0.34c0.124-0.023,0.244-0.046,0.364-0.069c0.013-0.028,0.026-0.057,0.039-0.085
			c0.014,0.013,0.028,0.027,0.043,0.04c-0.018,0.023-0.036,0.046-0.053,0.069c0.028,0.183,0.056,0.366,0.082,0.538
			c0.143-0.041,0.296-0.077,0.441-0.132c0.033-0.012,0.064-0.095,0.056-0.137c-0.017-0.081-0.062-0.156-0.096-0.234
			c-0.023,0.021-0.045,0.041-0.068,0.062c-0.007-0.006-0.014-0.013-0.02-0.019c0.021-0.023,0.043-0.047,0.064-0.07
			c0.113-0.391,0.151-0.777-0.085-1.159c-0.076,0.047-0.149,0.093-0.223,0.138c-0.013-0.015-0.026-0.03-0.039-0.044
			c0.059-0.057,0.118-0.115,0.177-0.172c-0.042-0.043-0.113-0.087-0.145-0.151c-0.074-0.149-0.124-0.297,0.101-0.384
			c0.041-0.016,0.081-0.166,0.053-0.209c-0.096-0.145-0.028-0.225,0.075-0.309c0.089-0.148,0.186-0.292,0.259-0.447
			c0.011-0.024-0.09-0.1-0.14-0.153c-0.02,0.009-0.04,0.019-0.059,0.028c0.027-0.098,0.055-0.196,0.086-0.305
			c-0.022-0.008-0.061-0.024-0.125-0.049c0.228-0.191,0.612,0.029,0.734-0.338c0,0-0.03-0.019-0.101-0.064
			c0.247-0.079,0.358-0.347,0.634-0.327c0.122,0.009,0.246,0.071,0.362,0.058c0.148-0.017,0.289-0.087,0.433-0.137
			c0.019-0.006,0.048-0.037,0.045-0.044c-0.132-0.289,0.223-0.261,0.278-0.428c0.019-0.057,0.05-0.11,0.075-0.165
			c-0.016-0.01-0.032-0.02-0.048-0.03c0.074-0.039,0.147-0.078,0.272-0.143c-0.12-0.031-0.189-0.049-0.253-0.065
			c0.105-0.077,0.312,0.103,0.371-0.159c0.039,0.027,0.082,0.057,0.148,0.103c0.053-0.227-0.163-0.235-0.267-0.348
			c0.045-0.032,0.087-0.062,0.106-0.075c0.046,0.054,0.08,0.097,0.118,0.136c0.051,0.053,0.099,0.111,0.158,0.154
			c0.069,0.05,0.157,0.127,0.222,0.115c0.057-0.01,0.134-0.131,0.129-0.197c-0.004-0.059-0.109-0.11-0.163-0.159
			c0.123,0.011,0.285,0.071,0.415,0.029c0.406-0.131,0.825-0.056,1.233-0.125c0.064-0.011,0.129-0.014,0.202,0.012
			c-0.024,0.011-0.047,0.021-0.062,0.028c0.362-0.017,0.733-0.035,1.104-0.052c0,0.039,0,0.077,0,0.116
			c-0.218-0.03-0.436-0.06-0.654-0.09c-0.007,0.024-0.015,0.048-0.022,0.071c0.186,0.097,0.4,0.162,0.551,0.297
			c0.316,0.283,0.707,0.282,1.08,0.346c0.356,0.061,0.721,0.07,1.075,0.139c0.272,0.054,0.53,0.173,0.798,0.248
			c0.092,0.026,0.197,0.004,0.296,0.004c0.006-0.025,0.013-0.051,0.019-0.076c-0.152-0.074-0.304-0.148-0.487-0.236
			c0.095-0.022,0.163-0.037,0.23-0.052c-0.154-0.073-0.304-0.157-0.464-0.214c-0.131-0.047-0.273-0.072-0.412-0.087
			c-0.061-0.007-0.129,0.056-0.19,0.051c-0.328-0.029-0.655-0.07-0.977-0.159c0.236,0.011,0.471,0.022,0.707,0.033
			c0.01-0.022,0.02-0.045,0.03-0.067c-0.036-0.018-0.073-0.036-0.109-0.054c0.008-0.018,0.017-0.035,0.025-0.053
			c0.081,0.027,0.16,0.061,0.243,0.079c0.132,0.028,0.275,0.024,0.399,0.071c0.259,0.099,0.51,0.222,0.762,0.337
			c0.004,0.002-0.01,0.041-0.016,0.063c0.077,0.036,0.154,0.072,0.2,0.094c-0.023,0.001-0.085,0.005-0.137,0.007
			c0.442,0.194,0.89,0.39,1.341,0.588c-0.116,0.198-0.206,0.226-0.423,0.158c-0.005,0.007-0.011,0.014-0.018,0.02
			c-0.007,0.032-0.026,0.089-0.02,0.091c0.151,0.069,0.305,0.134,0.459,0.195c0.014,0.005,0.05-0.015,0.057-0.031
			c0.052-0.126,0.109-0.057,0.183-0.018c0.113,0.06,0.237,0.098,0.356,0.146c-0.013-0.032-0.027-0.064-0.04-0.097
			c-0.035-0.034-0.069-0.069-0.104-0.103c-0.026-0.02-0.053-0.039-0.079-0.059c0.006-0.008,0.012-0.016,0.019-0.023
			c0.025,0.021,0.051,0.042,0.076,0.063c0.035,0.035,0.069,0.069,0.104,0.104c0.071,0.049,0.143,0.097,0.214,0.146
			c0.063,0.047,0.127,0.094,0.19,0.141c-0.007-0.03-0.013-0.06-0.021-0.098c0.088,0.018,0.164,0.034,0.24,0.049
			c-0.026-0.03-0.048-0.067-0.08-0.088c-0.647-0.417-1.269-0.881-1.948-1.237c-1.132-0.595-2.342-0.98-3.616-1.162
			c-0.878-0.126-1.756-0.192-2.637-0.092c-0.676,0.076-1.354,0.167-2.017,0.314c-1.182,0.262-2.288,0.735-3.312,1.38
			c-0.528,0.333-1.028,0.711-1.521,1.095c-0.25,0.195-0.464,0.439-0.682,0.672c-0.199,0.213-0.384,0.439-0.567,0.666
			c-0.056,0.069-0.087,0.159-0.13,0.239c0.07,0,0.14,0,0.235,0c-0.028,0.059-0.04,0.102-0.065,0.136
			c-0.097,0.135-0.089,0.219,0.101,0.229c0.231,0.011,0.457,0.016,0.657-0.134c0.059-0.044,0.139-0.062,0.209-0.091
			c0.009,0.016,0.017,0.032,0.026,0.049c-0.196,0.128-0.393,0.257-0.589,0.385c0.014,0.025,0.028,0.051,0.042,0.076
			c0.09-0.041,0.187-0.072,0.27-0.125c0.13-0.083,0.251-0.179,0.374-0.271c0.064-0.048,0.125-0.099,0.231-0.183
			c-0.101,0.008-0.139,0.011-0.178,0.014C145.419,153.602,145.406,153.61,145.393,153.617z M143.157,154.66
			c-0.031,0.229-0.061,0.457-0.094,0.705c0.131-0.103,0.251-0.18,0.349-0.279c0.13-0.132,0.242-0.281,0.362-0.423
			c0,0,0.002,0.002,0.002,0.002c-0.125,0.074-0.251,0.147-0.376,0.221c-0.019-0.014-0.038-0.027-0.057-0.041
			c0.029-0.128,0.064-0.254,0.083-0.383c0.005-0.031-0.044-0.07-0.068-0.105C143.29,154.459,143.224,154.559,143.157,154.66z
			 M160.833,151.887c0.144,0.178,0.272,0.374,0.438,0.529c0.147,0.138,0.336,0.232,0.506,0.346
			C161.463,152.47,161.148,152.179,160.833,151.887z M143.71,153.867c-0.005,0.021-0.009,0.042-0.014,0.064
			c0.009,0.011,0.019,0.023,0.028,0.034c0.127-0.147,0.253-0.295,0.38-0.442C143.973,153.638,143.841,153.752,143.71,153.867z
			 M160.626,151.728c0.05,0.034,0.101,0.068,0.151,0.103C160.727,151.796,160.676,151.762,160.626,151.728z M161.801,152.786
			c0.027,0.031,0.055,0.062,0.082,0.092C161.856,152.847,161.828,152.817,161.801,152.786z M144.26,154.389
			c-0.071,0.033-0.154,0.107-0.211,0.091c-0.183-0.053-0.211,0.082-0.272,0.185c0,0-0.002-0.002-0.002-0.002
			c0.031-0.005,0.062-0.01,0.108-0.018c-0.037,0.078-0.069,0.147-0.101,0.216c0.051,0.04,0.094,0.074,0.154,0.121
			c0.109-0.202,0.216-0.398,0.323-0.595L144.26,154.389z M146.694,165.853c-0.062-0.055-0.123-0.11-0.185-0.165
			c-0.022,0.045-0.07,0.122-0.06,0.131c0.055,0.047,0.124,0.078,0.189,0.114C146.656,165.905,146.675,165.879,146.694,165.853z
			 M143.696,153.93c-0.006,0.022-0.012,0.044-0.018,0.065c0.015-0.01,0.03-0.021,0.046-0.031
			C143.715,153.953,143.705,153.942,143.696,153.93z M144.26,154.389c0.004-0.009,0.007-0.017,0.011-0.026
			c-0.004,0.008-0.008,0.016-0.013,0.025L144.26,154.389z M144.653,154.12c0,0.007,0,0.014,0,0.022
			c0.004-0.002,0.009-0.003,0.011-0.005c0.002-0.002,0-0.007,0-0.01C144.661,154.124,144.657,154.122,144.653,154.12z
			 M160.006,151.484c-0.005,0.006-0.011,0.012-0.015,0.019c0.013,0.032,0.027,0.064,0.041,0.097c0.063,0.01,0.126,0.02,0.189,0.03
			C160.149,151.581,160.077,151.533,160.006,151.484z M160.006,151.484c-0.035-0.035-0.069-0.069-0.104-0.104
			c-0.005,0.006-0.01,0.013-0.015,0.02c0.035,0.034,0.069,0.069,0.104,0.103C159.995,151.497,160,151.49,160.006,151.484z
			 M159.902,151.38c-0.025-0.021-0.051-0.042-0.076-0.063c-0.006,0.008-0.012,0.016-0.019,0.023c0.027,0.02,0.053,0.039,0.079,0.059
			C159.892,151.393,159.897,151.387,159.902,151.38z M160.439,151.804c-0.008-0.012-0.017-0.025-0.025-0.037
			C160.422,151.779,160.431,151.791,160.439,151.804z M155.098,151.831c-0.008,0.005-0.021,0.002-0.032,0.003
			c0.018,0.018,0.035,0.037,0.096,0.1c-0.114-0.051-0.175-0.078-0.236-0.105c-0.24,0.175-0.234,0.348,0.011,0.532
			c0.004,0.003,0.146,0.086,0.025,0.167c-0.028,0.019-0.036,0.107-0.018,0.147c0.041,0.091,0.1,0.175,0.159,0.258
			c0.02,0.028,0.061,0.064,0.087,0.061c0.157-0.022,0.183,0.046,0.162,0.186c-0.013,0.082-0.057,0.202,0.109,0.216
			c0.068,0.006,0.131,0.074,0.2,0.081c0.113,0.012,0.255,0.14,0.335-0.054c0.065-0.159,0.185-0.183,0.333-0.144
			c0.347,0.092,0.694,0.186,1.019,0.273c0.099,0.075,0.199,0.15,0.299,0.226c0.02-0.021,0.04-0.042,0.06-0.062
			c-0.025-0.049-0.05-0.097-0.074-0.146c0.016-0.011,0.032-0.023,0.048-0.034c0.076,0.101,0.14,0.215,0.232,0.299
			c0.325,0.298,0.751,0.355,1.156,0.461c0.112,0.019,0.225,0.061,0.334,0.051c0.077-0.007,0.148-0.084,0.221-0.13
			c0.035-0.023,0.092-0.044,0.097-0.073c0.005-0.033-0.027-0.085-0.059-0.109c-0.28-0.208-0.567-0.407-0.844-0.619
			c-0.074-0.057-0.129-0.142-0.185-0.22c-0.089-0.126-0.166-0.261-0.259-0.384c-0.077-0.101-0.17-0.19-0.255-0.285
			c-0.148-0.167-0.294-0.335-0.441-0.502c-0.009,0.024-0.018,0.048-0.027,0.073c-0.042,0.018-0.083,0.043-0.127,0.053
			c-0.026,0.006-0.058-0.01-0.105-0.019c0.057-0.032,0.094-0.053,0.174-0.097c-0.085-0.028-0.13-0.049-0.178-0.058
			c-0.203-0.04-0.406-0.086-0.611-0.112c-0.182-0.024-0.366-0.026-0.549-0.037c-0.028-0.002-0.077,0.008-0.081-0.001
			c-0.081-0.207-0.168-0.034-0.253-0.008c-0.036,0.011-0.079,0.017-0.114,0.008c-0.207-0.054-0.413-0.114-0.62-0.169
			c-0.047-0.012-0.097-0.013-0.183-0.025c0.066,0.081,0.101,0.124,0.136,0.168C155.124,151.809,155.112,151.822,155.098,151.831z
			 M154.687,154.007c-0.012,0.04-0.043,0.109-0.034,0.114c0.045,0.028,0.099,0.042,0.152,0.056c0.053,0.014,0.125,0.006,0.159,0.038
			c0.179,0.172,0.337,0.193,0.54,0.056c0.028-0.019,0.061-0.032,0.083-0.056c0.037-0.041,0.102-0.101,0.092-0.131
			c-0.018-0.053-0.091-0.132-0.128-0.126c-0.087,0.015-0.185,0.056-0.244,0.119c-0.109,0.117-0.179,0.088-0.266-0.011
			c0.141-0.075,0.27-0.136,0.388-0.213c0.026-0.017,0.033-0.106,0.013-0.141c-0.096-0.165-0.213-0.317-0.305-0.483
			c-0.083-0.151-0.128-0.324-0.22-0.468c-0.037-0.058-0.155-0.098-0.231-0.092c-0.336,0.03-0.298,0.349-0.419,0.549
			c0.088,0.048,0.163,0.09,0.238,0.131c-0.004,0.009-0.009,0.018-0.013,0.028c-0.079-0.029-0.158-0.059-0.241-0.09
			c-0.016,0.245-0.004,0.278,0.305,0.458c0.072,0.042,0.19,0.006,0.343,0.006c0.008,0.043,0.025,0.138,0.042,0.234
			c-0.086,0.008-0.171,0.015-0.257,0.023L154.687,154.007z M153.624,154.653c0,0.008,0.065,0.007,0.097,0.019
			c0.035,0.013,0.064,0.041,0.099,0.053c0.046,0.015,0.103,0.042,0.141,0.027c0.093-0.035,0.193-0.077,0.26-0.146
			c0.035-0.035,0.035-0.163,0.001-0.195c-0.061-0.057-0.16-0.072-0.264-0.113c0.017,0.067,0.032,0.127,0.067,0.264
			c-0.189-0.127-0.329-0.221-0.469-0.315c0-0.03,0-0.059-0.001-0.089c-0.102,0.096-0.205,0.193-0.342,0.322
			C153.387,154.55,153.607,154.384,153.624,154.653z M156.754,156.033c0.035,0.082,0.067,0.165,0.094,0.232
			c0.08,0.012,0.15,0.022,0.23,0.034c0.01-0.083,0.02-0.166,0.03-0.252c0.033,0.003,0.056,0.011,0.077,0.007
			c0.054-0.011,0.107-0.028,0.161-0.042c-0.042-0.023-0.081-0.055-0.126-0.069c-0.171-0.054-0.344-0.103-0.589-0.176
			C156.684,155.883,156.721,155.957,156.754,156.033z M154.894,154.667c-0.05-0.024-0.146,0.046-0.241,0.079
			c0.067,0.076,0.103,0.117,0.155,0.176c-0.063,0-0.102,0-0.14,0c-0.005,0.013-0.011,0.025-0.016,0.038
			c0.134,0.073,0.268,0.145,0.414,0.224C155.166,154.999,155.093,154.762,154.894,154.667z M154.672,154.486
			c0.013,0.004,0.061-0.049,0.056-0.059c-0.036-0.081-0.067-0.175-0.131-0.229c-0.027-0.023-0.126,0.04-0.194,0.058
			c-0.044,0.012-0.09,0.013-0.15,0.02C154.316,154.491,154.52,154.44,154.672,154.486z M154.684,154.01
			c-0.086-0.076-0.171-0.154-0.262-0.224c-0.008-0.006-0.059,0.046-0.071,0.055c-0.115-0.031-0.222-0.059-0.329-0.088
			c-0.011,0.03-0.022,0.061-0.033,0.091c0.119,0.053,0.33,0.169,0.342,0.151c0.125-0.186,0.219,0.034,0.321,0.01
			c0.01-0.002,0.023,0.002,0.034,0.003C154.687,154.007,154.684,154.01,154.684,154.01z M149.762,157.747
			c-0.385,0.048-0.401,0.061-0.366,0.314C149.543,157.935,149.652,157.841,149.762,157.747z M152.06,159.737
			c-0.01-0.111-0.017-0.223-0.032-0.334c-0.004-0.033-0.021-0.074-0.046-0.093c-0.022-0.016-0.081-0.018-0.092-0.003
			c-0.019,0.026-0.026,0.075-0.015,0.105c0.047,0.117,0.104,0.231,0.158,0.346C152.043,159.751,152.052,159.744,152.06,159.737z
			 M153.807,153.925c-0.023,0.05-0.064,0.1-0.065,0.15c-0.001,0.044,0.043,0.088,0.068,0.133c0.035-0.042,0.07-0.085,0.125-0.151
			C153.88,154,153.844,153.962,153.807,153.925z M155.052,154.401c-0.063-0.054-0.126-0.108-0.22-0.189
			c-0.016,0.076-0.048,0.144-0.031,0.159c0.054,0.049,0.125,0.078,0.19,0.115C155.011,154.457,155.032,154.429,155.052,154.401z
			 M158.975,155.622c-0.012-0.005-0.025-0.009-0.037-0.014c0.002,0.013,0.004,0.027,0.007,0.04
			C158.954,155.64,158.965,155.631,158.975,155.622z M162.542,163.834c-0.014-0.02-0.028-0.041-0.043-0.061
			c-0.248,0.062-0.493,0.151-0.745,0.18c-0.341,0.039-0.522,0.282-0.728,0.498c-0.033,0.034-0.015,0.117-0.021,0.177
			c0.153-0.19,0.288-0.352,0.542-0.387c0.197-0.027,0.384-0.172,0.623-0.019C162.287,164.099,162.414,163.967,162.542,163.834z
			 M158.321,151.992c0.059,0.109,0.101,0.227,0.151,0.34c0.02-0.006,0.041-0.012,0.061-0.018c0.011-0.028,0.022-0.056,0.028-0.071
			c0.089,0.016,0.175,0.031,0.263,0.047c0.006-0.214-0.19-0.48-0.434-0.567c-0.072-0.026-0.165,0.006-0.267,0.012
			C158.217,151.856,158.281,151.918,158.321,151.992z M162.653,164.172c0.219-0.266,0.437-0.532,0.673-0.819
			c-0.389-0.088-0.463,0.238-0.626,0.341c0.018,0.109,0.056,0.189,0.034,0.246c-0.025,0.066-0.104,0.112-0.159,0.166
			C162.601,164.128,162.627,164.15,162.653,164.172z M154.359,150.79c-0.006,0.019-0.011,0.038-0.017,0.056
			c0.03,0.022,0.058,0.055,0.092,0.064c0.114,0.031,0.231,0.055,0.347,0.077c0.068,0.013,0.161,0.051,0.2,0.022
			c0.082-0.063,0.135-0.162,0.235-0.293c-0.196,0.04-0.313,0.064-0.371,0.075c-0.052-0.072-0.079-0.109-0.106-0.146
			c-0.015,0.008-0.029,0.016-0.044,0.024c0,0.072,0,0.144,0,0.195C154.575,150.838,154.467,150.814,154.359,150.79z
			 M152.545,150.318c0.388-0.042,0.731-0.163,1-0.487c-0.137-0.031-0.261-0.06-0.43-0.098c0.07,0.075,0.103,0.111,0.174,0.187
			C153.028,150.059,152.787,150.189,152.545,150.318z M159.593,151.626c0.243,0.144,0.485,0.288,0.728,0.433
			c0.018-0.028,0.035-0.056,0.053-0.085c-0.237-0.154-0.475-0.308-0.712-0.462C159.64,151.55,159.616,151.588,159.593,151.626z
			 M149.85,152.281c0.055-0.093,0.11-0.186,0.165-0.279c-0.015-0.02-0.03-0.04-0.045-0.06c-0.087,0.046-0.208,0.071-0.25,0.143
			C149.679,152.154,149.675,152.303,149.85,152.281C149.85,152.281,149.85,152.281,149.85,152.281z M151.941,151.077
			c-0.098-0.201-0.259-0.23-0.492-0.082C151.603,151.02,151.757,151.046,151.941,151.077z M162.126,164.662
			c0.073-0.063,0.146-0.126,0.219-0.189c-0.015-0.02-0.03-0.04-0.045-0.059c-0.077,0.054-0.153,0.109-0.23,0.163
			C162.088,164.606,162.107,164.634,162.126,164.662z M159.014,151.196c-0.014-0.001-0.027-0.002-0.041-0.003
			c0.007,0.008,0.015,0.015,0.022,0.023C159.003,151.21,159.009,151.203,159.014,151.196z M159.739,159.725
			c-0.014-0.001-0.028-0.001-0.041-0.002c0.005,0.009,0.011,0.018,0.016,0.028C159.723,159.742,159.731,159.733,159.739,159.725z"/>
		
			<ellipse fill="none" stroke="#0078A1" stroke-width="0.5" stroke-miterlimit="10" cx="153.191" cy="161.09" rx="11.848" ry="12.017"/>
	</g>
	<text transform="matrix(1 0 0 1 160.1703 259.5068)" fill="#BCBDBD" font-family="'HelveticaNeue-Medium'" font-size="11px">South</text>
	<text transform="matrix(1 0 0 1 196.9734 103.0147)" fill="#BCBDBD" font-family="'HelveticaNeue-Medium'" font-size="11px">East</text>
	<g>
		<g enable-background="new    ">
			<g>
				<g>
					<g>
						<g>
							
								<line fill="none" stroke="#A6A6A7" stroke-width="0.8" stroke-linecap="round" stroke-miterlimit="10" x1="250.163" y1="224.788" x2="250.163" y2="224.788"/>
							
								<path fill="none" stroke="#A6A6A7" stroke-width="0.8" stroke-linecap="round" stroke-miterlimit="10" stroke-dasharray="0,2.5087" d="
								M248.74,226.853c-18.851,26.432-53.731,40.918-93.995,35.122c-61.342-8.831-112.307-61.447-113.604-117.293
								c-0.421-18.12,4.439-34.388,13.292-47.797"/>
							
								<line fill="none" stroke="#A6A6A7" stroke-width="0.8" stroke-linecap="round" stroke-miterlimit="10" x1="55.131" y1="95.846" x2="55.131" y2="95.846"/>
						</g>
					</g>
				</g>
			</g>
		</g>
	</g>
	<g>
		<g enable-background="new    ">
			<g>
				<g>
					<g>
						<g>
							
								<line fill="none" stroke="#A6A6A7" stroke-width="0.8" stroke-linecap="round" stroke-miterlimit="10" x1="269.332" y1="161.264" x2="269.332" y2="161.264"/>
							
								<path fill="none" stroke="#A6A6A7" stroke-width="0.8" stroke-linecap="round" stroke-miterlimit="10" stroke-dasharray="0,2.5012" d="
								M269.225,158.767c-2.087-24.921-34.428-47.752-83.444-55.515c-61.791-9.787-127.043,8.02-145.453,39.697
								c-3.055,5.256-4.631,10.569-4.853,15.82"/>
							
								<line fill="none" stroke="#A6A6A7" stroke-width="0.8" stroke-linecap="round" stroke-miterlimit="10" x1="35.448" y1="160.016" x2="35.448" y2="160.016"/>
						</g>
					</g>
				</g>
			</g>
		</g>
	</g>
	<g>
		<g enable-background="new    ">
			<g>
				<g>
					<g>
						<g>
							
								<line fill="none" stroke="#A6A6A7" stroke-width="0.8" stroke-linecap="round" stroke-miterlimit="10" x1="173.654" y1="45.771" x2="173.654" y2="45.771"/>
							
								<path fill="none" stroke="#A6A6A7" stroke-width="0.8" stroke-linecap="round" stroke-miterlimit="10" stroke-dasharray="0,2.5061" d="
								M176.082,46.362c10.443,3.753,17.635,22.629,18.518,54.059c1.518,54.037-16.18,125.037-39.454,158.275
								c-8.218,11.736-16.049,17.219-22.809,17.023"/>
							
								<line fill="none" stroke="#A6A6A7" stroke-width="0.8" stroke-linecap="round" stroke-miterlimit="10" x1="131.093" y1="275.617" x2="131.093" y2="275.617"/>
						</g>
					</g>
				</g>
			</g>
		</g>
	</g>
</g>
<g id="Layer_6">
	<path fill="none" stroke="#EC7E16" stroke-width="2" stroke-linecap="round" stroke-miterlimit="10" d="M197.268,133.942
		c8.539,24.74,15.465,51.873,16.007,78.373"/>
	<g>
		<path fill="none" stroke="#FFFFFF" stroke-width="2.5" stroke-miterlimit="10" d="M186.837,142.395l-0.27-0.292l-2.799-0.055
			c-0.22-0.026-0.357-0.318-0.278-0.525l1.209-2.37l-0.202-0.269l-3.084,3.911c-0.122,0.158,0.013,0.384,0.21,0.351L186.837,142.395
			z"/>
	</g>
	<g>
		<g>
			<g>
				<g>
					<path fill="none" stroke="#FFFFFF" stroke-width="2" stroke-miterlimit="10" d="M185.523,107.724l0.374-0.252l0.845-3.006
						c0.067-0.242,0.344-0.356,0.563-0.232l2.447,1.76l0.336-0.181l-3.931-4.136c-0.156-0.164-0.432-0.051-0.429,0.175
						L185.523,107.724z"/>
				</g>
			</g>
			<path d="M185.423,107.724l0.374-0.252l0.845-3.006c0.067-0.242,0.344-0.356,0.563-0.232l2.447,1.76l0.336-0.181l-3.931-4.136
				c-0.156-0.164-0.432-0.051-0.429,0.175L185.423,107.724z"/>
		</g>
	</g>
	<path fill="none" stroke="#EC7E16" stroke-width="2" stroke-linecap="round" stroke-miterlimit="10" d="M109.911,216.5
		c2.962,0.608,5.995,1.159,9.094,1.65c32.772,5.191,66.515,2.618,93.728-5.669"/>
	<text transform="matrix(1 0 0 1 154.0981 215.5601)" fill="#EC7E16" font-family="'Symbol'" font-size="16px">a</text>
	<text transform="matrix(1 0 0 1 209.3217 161.7948)" fill="#EC7E16" font-family="'Symbol'" font-size="16px">d</text>
	<g>
		<defs>
			<path id="SVGID_3_" d="M162,158.66c1.691,6.418-3.846,18.181-8.808,13.916c-4.163-3.578-10.183-7.882-11.848-12.017
				c-2.479-6.156,4.797-8.682,11.339-8.537C155.824,152.093,160.658,153.566,162,158.66z M153.191,39.739
				c-66.85,0-121.043,54.193-121.043,121.043s54.193,121.043,121.043,121.043s121.043-54.193,121.043-121.043
				S220.042,39.739,153.191,39.739z"/>
		</defs>
		<clipPath id="SVGID_4_">
			<use xlink:href="#SVGID_3_"  overflow="visible"/>
		</clipPath>
		
			<line clip-path="url(#SVGID_4_)" fill="none" stroke="#EC7E16" stroke-width="1.5" stroke-miterlimit="10" stroke-dasharray="2,2.5" x1="152.931" y1="160.56" x2="213.006" y2="211.773"/>
		<g clip-path="url(#SVGID_4_)">
			<polygon fill="#9487B8" points="114.072,213.292 112.197,212.81 152.373,160.013 153.191,160.182 			"/>
			<g>
				<polygon fill="#9487B8" points="111.828,210.003 113.89,211.896 117.603,212.086 110.111,216.943 				"/>
			</g>
		</g>
		<g clip-path="url(#SVGID_4_)">
			<polygon fill="#9487B8" points="258.612,179.352 152.509,160.45 153.008,159.873 259.651,177.961 			"/>
			<g>
				<polygon fill="#9487B8" points="255.227,180.458 257.724,178.401 258.052,176.554 263.935,179.482 				"/>
			</g>
		</g>
		<g clip-path="url(#SVGID_4_)">
			<polygon fill="#9487B8" points="152.333,160.182 151.486,65.442 152.994,65.403 153.083,160.108 			"/>
			<g>
				<polygon fill="#9487B8" points="155.337,68.294 152.292,66.343 149.387,66.942 152.267,60.039 				"/>
			</g>
		</g>
		<polygon clip-path="url(#SVGID_4_)" fill="#7C7C7D" points="198.893,134.131 152.931,160.56 152.587,160.013 197.719,132.897 		
			"/>
	</g>
</g>
<g id="Layer_7">
	<g>
		<g>
			
				<line fill="none" stroke="#000000" stroke-width="1.25" stroke-linecap="round" stroke-miterlimit="10" x1="55.131" y1="95.846" x2="55.131" y2="95.846"/>
			
				<path fill="none" stroke="#000000" stroke-width="1.25" stroke-linecap="round" stroke-miterlimit="10" stroke-dasharray="0,2.495" d="
				M56.57,93.81c18.972-25.969,53.582-40.138,93.473-34.395c61.342,8.831,112.299,61.454,113.595,117.299
				c0.413,17.778-4.257,33.773-12.793,47.033"/>
			
				<line fill="none" stroke="#000000" stroke-width="1.25" stroke-linecap="round" stroke-miterlimit="10" x1="250.163" y1="224.788" x2="250.163" y2="224.788"/>
		</g>
	</g>
	<g>
		<g>
			
				<line fill="none" stroke="#000000" stroke-width="1.25" stroke-linecap="round" stroke-miterlimit="10" x1="35.448" y1="160.016" x2="35.448" y2="160.016"/>
			
				<path fill="none" stroke="#000000" stroke-width="1.25" stroke-linecap="round" stroke-miterlimit="10" stroke-dasharray="0,2.5033" d="
				M35.546,162.516c1.999,24.967,34.368,47.859,83.459,55.634c61.791,9.787,127.037-8.026,145.447-39.703
				c3.077-5.295,4.654-10.647,4.858-15.935"/>
			
				<line fill="none" stroke="#000000" stroke-width="1.25" stroke-linecap="round" stroke-miterlimit="10" x1="269.332" y1="161.264" x2="269.332" y2="161.264"/>
		</g>
	</g>
	<g>
		<g>
			
				<line fill="none" stroke="#000000" stroke-width="1.25" stroke-linecap="round" stroke-miterlimit="10" x1="131.093" y1="275.617" x2="131.093" y2="275.617"/>
			
				<path fill="none" stroke="#000000" stroke-width="1.25" stroke-linecap="round" stroke-miterlimit="10" stroke-dasharray="0,2.5054" d="
				M128.668,275.019c-10.424-3.78-17.602-22.645-18.483-54.038c-1.518-54.037,16.183-125.049,39.457-158.287
				c8.202-11.713,16.018-17.197,22.768-17.021"/>
			
				<line fill="none" stroke="#000000" stroke-width="1.25" stroke-linecap="round" stroke-miterlimit="10" x1="173.654" y1="45.771" x2="173.654" y2="45.771"/>
		</g>
	</g>
</g>
<g id="Layer_3">
	<circle fill="none" stroke="#000000" stroke-width="2" stroke-miterlimit="10" cx="152.391" cy="160.696" r="117.181"/>
</g>
<g id="Layer_2">
	
		<text transform="matrix(1 0 0 1 137.366 55.5147)" fill="#FFFFFF" stroke="#FFFFFF" stroke-miterlimit="10" font-family="'HelveticaNeue-Medium'" font-size="12px">North</text>
	<text transform="matrix(1 0 0 1 137.366 55.5147)" font-family="'HelveticaNeue-Medium'" font-size="12px">North</text>
	<text transform="matrix(1 0 0 1 175.2478 140.2887)" font-family="'HelveticaNeue-Medium'" font-size="10px">Z</text>
	<text transform="matrix(1 0 0 1 156.4715 85.4626)" fill="#9487B8" font-family="'MinionPro-BoldIt'" font-size="12px">z</text>
	<text transform="matrix(1 0 0 1 122.7004 212.9089)" fill="#9487B8" font-family="'MinionPro-BoldIt'" font-size="12px">x</text>
	<text transform="matrix(1 0 0 1 249.4053 172.3887)" fill="#9487B8" font-family="'MinionPro-BoldIt'" font-size="12px">y</text>
	<text transform="matrix(1 0 0 1 229.0791 130.0975)" font-family="'HelveticaNeue-Medium'" font-size="12px">Y</text>
	<text transform="matrix(1 0 0 1 514.5842 182.2455)" font-family="'HelveticaNeue-Medium'" font-size="12px">Y</text>
	<text transform="matrix(1 0 0 1 183.0491 98.9272)" font-family="'HelveticaNeue-Medium'" font-size="12px">X</text>
	<text transform="matrix(1 0 0 1 412.5813 63.6989)" font-family="'HelveticaNeue-Medium'" font-size="12px">X</text>
	<text transform="matrix(1 0 0 1 370.8224 63.6989)" font-family="'HelveticaNeue-Medium'" font-size="12px">North</text>
	<text transform="matrix(1 0 0 1 506.2444 160.8591)" font-family="'HelveticaNeue-Medium'" font-size="12px">East</text>
	
		<text transform="matrix(1 0 0 1 470.2145 124.6345)" fill="#00A3E6" font-family="'HelveticaNeue-Medium'" font-size="14px" letter-spacing="1">+U</text>
	
		<text transform="matrix(1 0 0 1 381.0605 89.942)" fill="#E3217E" font-family="'HelveticaNeue-Medium'" font-size="14px" letter-spacing="1">+Q</text>
	
		<text transform="matrix(1 0 0 1 326.2634 124.634)" fill="#00A3E6" font-family="'HelveticaNeue-Medium'" font-size="14px" letter-spacing="1">–U</text>
	
		<text transform="matrix(1 0 0 1 318.0774 160.8591)" fill="#E3217E" font-family="'HelveticaNeue-Medium'" font-size="14px" letter-spacing="1">–Q</text>
	<text transform="matrix(1 0 0 1 573.4919 182.2455)" font-family="'HelveticaNeue-Medium'" font-size="12px">Y</text>
	<text transform="matrix(1 0 0 1 690.4207 63.6989)" font-family="'HelveticaNeue-Medium'" font-size="12px">X</text>
	<text transform="matrix(1 0 0 1 648.6619 63.6989)" font-family="'HelveticaNeue-Medium'" font-size="12px">North</text>
	<text transform="matrix(1 0 0 1 564.1521 160.8591)" font-family="'HelveticaNeue-Medium'" font-size="12px">East</text>
	
		<text transform="matrix(1 0 0 1 602.7709 124.6345)" fill="#00A3E6" font-family="'HelveticaNeue-Medium'" font-size="14px" letter-spacing="1">+U</text>
	
		<text transform="matrix(1 0 0 1 691.6679 89.942)" fill="#E3217E" font-family="'HelveticaNeue-Medium'" font-size="14px" letter-spacing="1">+Q</text>
	
		<text transform="matrix(1 0 0 1 743.8683 124.634)" fill="#00A3E6" font-family="'HelveticaNeue-Medium'" font-size="14px" letter-spacing="1">–U</text>
	
		<text transform="matrix(1 0 0 1 755.8974 160.8591)" fill="#E3217E" font-family="'HelveticaNeue-Medium'" font-size="14px" letter-spacing="1">–Q</text>
	<g>
		<path d="M196.003,133.466l-13.22,8.002c-0.164,0.095,0.41,1.343,0.577,1.244l13.392-7.618L196.003,133.466z"/>
		<g>
			<path d="M186.737,142.495l-0.27-0.292l-2.799-0.055c-0.22-0.026-0.357-0.318-0.278-0.525l1.209-2.37l-0.202-0.269l-3.084,3.911
				c-0.122,0.158,0.013,0.384,0.21,0.351L186.737,142.495z"/>
		</g>
	</g>
	
		<line fill="none" stroke="#FFFFFF" stroke-width="4" stroke-linecap="round" stroke-miterlimit="10" x1="197.3" y1="134.039" x2="225.415" y2="126.185"/>
	<g>
		<path d="M197.3,134.989c-0.416,0-0.797-0.274-0.915-0.694c-0.141-0.506,0.154-1.129,0.66-1.271l27.723-7.645
			c0.508-0.139,1.03,0.154,1.171,0.659c0.141,0.506-0.154,1.029-0.66,1.171l-27.723,7.745
			C197.47,134.978,197.384,134.989,197.3,134.989z"/>
	</g>
	<g>
		<g>
			<path d="M223.177,129.481l-0.046-0.438l1.719-2.518c0.139-0.202,0.051-0.481-0.179-0.567l-2.852-0.726l-0.075-0.364l5.56,0.346
				c0.221,0.014,0.31,0.291,0.138,0.431L223.177,129.481z"/>
		</g>
	</g>
	
		<line fill="none" stroke="#000000" stroke-width="2" stroke-linecap="round" stroke-miterlimit="10" x1="197.268" y1="133.942" x2="186.79" y2="103.891"/>
	<text transform="matrix(1 0 0 1 338.9176 31.6858)" font-family="'HelveticaNeue-Medium'" font-size="18px">IAU Conventions</text>
	<text transform="matrix(1 0 0 1 90.1443 305.8947)" font-family="'HelveticaNeue-Medium'" font-size="14px">Coordinate Sphere</text>
	<text transform="matrix(1 0 0 1 313.2041 305.8944)" font-family="'HelveticaNeue-Medium'" font-size="14px">Tangent plane, looking inward</text>
	<text transform="matrix(1 0 0 1 584.2579 305.8937)" font-family="'HelveticaNeue-Medium'" font-size="14px">Tangent plane, looking outward</text>
</g>
<g id="Layer_8">
	<text transform="matrix(1 0 0 1 419.343 111.3591)" font-family="'Symbol'" font-size="16.1px" letter-spacing="1">y</text>
	<line fill="none" stroke="#E3217E" stroke-width="3" stroke-miterlimit="10" x1="408.603" y1="74.034" x2="408.603" y2="262.634"/>
	
		<line fill="none" stroke="#00A3E6" stroke-width="3" stroke-miterlimit="10" x1="475.284" y1="101.654" x2="341.924" y2="235.014"/>
	
		<line fill="none" stroke="#E3217E" stroke-width="3" stroke-miterlimit="10" stroke-dasharray="2,2.5" x1="314.303" y1="168.334" x2="502.903" y2="168.334"/>
	
		<line fill="none" stroke="#00A3E6" stroke-width="3" stroke-miterlimit="10" stroke-dasharray="2,2.5" x1="475.284" y1="235.014" x2="341.924" y2="101.654"/>
	<g>
		<g>
			
				<line fill="none" stroke="#000000" stroke-width="0.75" stroke-miterlimit="10" x1="506.971" y1="168.334" x2="529.185" y2="168.334"/>
			<g>
				<polygon points="533.421,168.334 527.452,170.773 528.868,168.334 527.452,165.895 				"/>
			</g>
		</g>
	</g>
	<g>
		<g>
			
				<line fill="none" stroke="#000000" stroke-width="0.75" stroke-miterlimit="10" x1="408.603" y1="69.966" x2="408.603" y2="47.752"/>
			<g>
				<polygon points="408.603,43.516 411.042,49.485 408.603,48.069 406.164,49.485 				"/>
			</g>
		</g>
	</g>
	
		<line fill="none" stroke="#000000" stroke-width="0.75" stroke-miterlimit="10" x1="408.603" y1="168.334" x2="459.951" y2="79.209"/>
	<g>
		<g>
			<path fill="none" stroke="#000000" stroke-width="0.75" stroke-miterlimit="10" d="M441.095,103.643
				c-8.58-4.318-18.138-6.979-28.252-7.563"/>
			<g>
				<polygon points="444.819,105.656 440.707,100.689 440.805,103.508 438.405,104.99 				"/>
			</g>
			<g>
				<polygon points="408.603,95.957 414.651,93.718 413.154,96.109 414.488,98.594 				"/>
			</g>
		</g>
	</g>
	<text transform="matrix(1 0 0 1 665.044 112.3591)" font-family="'Symbol'" font-size="16.1px" letter-spacing="1">y</text>
	<line fill="none" stroke="#E3217E" stroke-width="3" stroke-miterlimit="10" x1="686.443" y1="74.034" x2="686.443" y2="262.634"/>
	
		<line fill="none" stroke="#00A3E6" stroke-width="3" stroke-miterlimit="10" x1="619.762" y1="101.654" x2="753.123" y2="235.014"/>
	
		<line fill="none" stroke="#E3217E" stroke-width="3" stroke-miterlimit="10" stroke-dasharray="2,2.5" x1="780.743" y1="168.334" x2="592.143" y2="168.334"/>
	
		<line fill="none" stroke="#00A3E6" stroke-width="3" stroke-miterlimit="10" stroke-dasharray="2,2.5" x1="619.762" y1="235.014" x2="753.123" y2="101.654"/>
	<g>
		<g>
			
				<line fill="none" stroke="#000000" stroke-width="0.75" stroke-miterlimit="10" x1="589.329" y1="168.334" x2="567.115" y2="168.334"/>
			<g>
				<polygon points="562.879,168.334 568.849,165.895 567.432,168.334 568.849,170.773 				"/>
			</g>
		</g>
	</g>
	<g>
		<g>
			
				<line fill="none" stroke="#000000" stroke-width="0.75" stroke-miterlimit="10" x1="686.442" y1="69.966" x2="686.442" y2="47.752"/>
			<g>
				<polygon points="686.442,43.516 688.882,49.485 686.442,48.069 684.004,49.485 				"/>
			</g>
		</g>
	</g>
	
		<line fill="none" stroke="#000000" stroke-width="0.75" stroke-miterlimit="10" x1="686.443" y1="168.334" x2="635.095" y2="79.209"/>
	<g>
		<g>
			<path fill="none" stroke="#000000" stroke-width="0.75" stroke-miterlimit="10" d="M653.951,103.643
				c8.58-4.318,18.138-6.979,28.252-7.563"/>
			<g>
				<polygon points="650.227,105.656 656.641,104.99 654.242,103.508 654.34,100.689 				"/>
			</g>
			<g>
				<polygon points="686.443,95.957 680.558,98.594 681.893,96.109 680.396,93.719 				"/>
			</g>
		</g>
	</g>
</g>
</svg>
